<svg width="780" height="260" viewBox="0 0 780 260" fill="none" xmlns="http://www.w3.org/2000/svg">
<path d="M329.461 136V7.19999H426.261V35.2H367.061V57.4H418.661V85.8H367.061V136H329.461ZM454.297 136V7.19999H491.897V136H454.297ZM556.161 136V35.2H519.961V7.19999H629.961V35.2H593.761V136H556.161ZM657.875 136V7.19999H728.675C741.742 7.19999 751.675 10.2667 758.475 16.4C765.275 22.5333 768.675 31.3333 768.675 42.8C768.675 49.4667 767.408 55.0667 764.875 59.6C762.475 64.1333 759.275 67.7333 755.275 70.4C760.742 72.5333 765.075 75.6667 768.275 79.8C771.608 83.8 773.275 89.8 773.275 97.8C773.275 109.933 769.542 119.333 762.075 126C754.608 132.667 744.008 136 730.275 136H657.875ZM694.075 58.6H718.475C727.675 58.6 732.275 54.4667 732.275 46.2C732.275 42.0667 731.142 38.9333 728.875 36.8C726.742 34.6667 722.942 33.6 717.475 33.6H694.075V58.6ZM694.075 109.8H720.075C725.142 109.8 728.875 108.733 731.275 106.6C733.675 104.467 734.875 100.933 734.875 96C734.875 91.8667 733.675 88.7333 731.275 86.6C728.875 84.4667 724.875 83.4 719.275 83.4H694.075V109.8Z" fill="#D6FB00"/>
<path d="M345.741 190.68C341.848 190.627 339.128 191.293 337.581 192.68C336.088 194.067 335.341 196.467 335.341 199.88V201.08H345.741V207.48H335.341V245H328.061V207.48H321.741V201.08H328.061V199.32C328.061 188.813 333.954 183.8 345.741 184.28V190.68ZM352.365 188.2C352.365 186.867 352.818 185.8 353.725 185C354.631 184.147 355.831 183.72 357.325 183.72C358.818 183.72 360.018 184.147 360.925 185C361.831 185.8 362.285 186.867 362.285 188.2C362.285 189.533 361.831 190.627 360.925 191.48C360.018 192.28 358.818 192.68 357.325 192.68C355.831 192.68 354.631 192.28 353.725 191.48C352.818 190.627 352.365 189.533 352.365 188.2ZM360.925 201.08V245H353.645V201.08H360.925ZM393.589 238.6V245H388.149C383.669 245 380.309 243.933 378.069 241.8C375.882 239.667 374.789 236.093 374.789 231.08V207.4H368.229V201.08H374.789V190.12H382.149V201.08H393.509V207.4H382.149V231.24C382.149 234.067 382.656 236.013 383.669 237.08C384.736 238.093 386.549 238.6 389.109 238.6H393.589ZM425.593 200.36C430.713 200.36 434.846 202.013 437.993 205.32C441.139 208.573 442.713 213.293 442.713 219.48V245H435.433V220.12C435.433 215.747 434.313 212.387 432.073 210.04C429.833 207.693 426.793 206.52 422.953 206.52C418.953 206.52 415.753 207.827 413.353 210.44C410.953 213 409.753 216.76 409.753 221.72V245H402.473V201.08H409.753V211.48C410.873 207.907 412.846 205.16 415.673 203.24C418.553 201.32 421.859 200.36 425.593 200.36ZM494.279 220.6C494.279 222.147 494.172 223.48 493.959 224.6H458.839C458.999 229.613 460.412 233.373 463.079 235.88C465.799 238.387 469.106 239.64 472.999 239.64C476.519 239.64 479.452 238.76 481.799 237C484.199 235.187 485.666 232.787 486.199 229.8H493.959C493.426 232.84 492.226 235.56 490.359 237.96C488.546 240.36 486.172 242.227 483.239 243.56C480.306 244.893 476.999 245.56 473.319 245.56C469.106 245.56 465.372 244.653 462.119 242.84C458.866 241.027 456.306 238.44 454.439 235.08C452.626 231.667 451.719 227.667 451.719 223.08C451.719 218.493 452.626 214.493 454.439 211.08C456.306 207.667 458.866 205.053 462.119 203.24C465.372 201.427 469.106 200.52 473.319 200.52C477.586 200.52 481.292 201.427 484.439 203.24C487.639 205.053 490.066 207.48 491.719 210.52C493.426 213.56 494.279 216.92 494.279 220.6ZM486.919 221.08C487.079 217.827 486.546 215.107 485.319 212.92C484.092 210.733 482.412 209.107 480.279 208.04C478.146 206.973 475.826 206.44 473.319 206.44C469.319 206.44 465.959 207.693 463.239 210.2C460.519 212.653 459.052 216.28 458.839 221.08H486.919ZM517.561 200.52C522.521 200.52 526.494 201.827 529.481 204.44C532.521 207 534.361 210.467 535.001 214.84H528.041C527.721 212.227 526.628 210.093 524.761 208.44C522.948 206.733 520.494 205.88 517.401 205.88C514.788 205.88 512.734 206.52 511.241 207.8C509.801 209.027 509.081 210.707 509.081 212.84C509.081 214.44 509.561 215.747 510.521 216.76C511.534 217.72 512.761 218.467 514.201 219C515.694 219.48 517.721 220.013 520.281 220.6C523.534 221.347 526.148 222.12 528.121 222.92C530.148 223.667 531.854 224.893 533.241 226.6C534.681 228.307 535.401 230.6 535.401 233.48C535.401 237.053 534.041 239.96 531.321 242.2C528.654 244.44 525.081 245.56 520.601 245.56C515.374 245.56 511.108 244.307 507.801 241.8C504.494 239.293 502.548 235.8 501.961 231.32H509.001C509.268 233.987 510.414 236.147 512.441 237.8C514.521 239.453 517.241 240.28 520.601 240.28C523.108 240.28 525.054 239.64 526.441 238.36C527.881 237.08 528.601 235.4 528.601 233.32C528.601 231.613 528.094 230.253 527.081 229.24C526.068 228.227 524.814 227.453 523.321 226.92C521.828 226.387 519.774 225.827 517.161 225.24C513.908 224.493 511.294 223.747 509.321 223C507.401 222.253 505.748 221.08 504.361 219.48C503.028 217.827 502.361 215.613 502.361 212.84C502.361 209.16 503.721 206.2 506.441 203.96C509.161 201.667 512.868 200.52 517.561 200.52ZM558.889 200.52C563.849 200.52 567.822 201.827 570.809 204.44C573.849 207 575.689 210.467 576.329 214.84H569.369C569.049 212.227 567.956 210.093 566.089 208.44C564.276 206.733 561.822 205.88 558.729 205.88C556.116 205.88 554.062 206.52 552.569 207.8C551.129 209.027 550.409 210.707 550.409 212.84C550.409 214.44 550.889 215.747 551.849 216.76C552.862 217.72 554.089 218.467 555.529 219C557.022 219.48 559.049 220.013 561.609 220.6C564.862 221.347 567.476 222.12 569.449 222.92C571.476 223.667 573.182 224.893 574.569 226.6C576.009 228.307 576.729 230.6 576.729 233.48C576.729 237.053 575.369 239.96 572.649 242.2C569.982 244.44 566.409 245.56 561.929 245.56C556.702 245.56 552.436 244.307 549.129 241.8C545.822 239.293 543.876 235.8 543.289 231.32H550.329C550.596 233.987 551.742 236.147 553.769 237.8C555.849 239.453 558.569 240.28 561.929 240.28C564.436 240.28 566.382 239.64 567.769 238.36C569.209 237.08 569.929 235.4 569.929 233.32C569.929 231.613 569.422 230.253 568.409 229.24C567.396 228.227 566.142 227.453 564.649 226.92C563.156 226.387 561.102 225.827 558.489 225.24C555.236 224.493 552.622 223.747 550.649 223C548.729 222.253 547.076 221.08 545.689 219.48C544.356 217.827 543.689 215.613 543.689 212.84C543.689 209.16 545.049 206.2 547.769 203.96C550.489 201.667 554.196 200.52 558.889 200.52ZM625.663 200.52C631.263 200.52 635.903 202.013 639.583 205C643.263 207.987 645.529 211.987 646.383 217H638.703C638.169 213.853 636.703 211.4 634.303 209.64C631.956 207.827 629.023 206.92 625.503 206.92C622.943 206.92 620.596 207.507 618.463 208.68C616.383 209.853 614.703 211.667 613.423 214.12C612.143 216.52 611.503 219.507 611.503 223.08C611.503 226.653 612.143 229.667 613.423 232.12C614.703 234.52 616.383 236.307 618.463 237.48C620.596 238.653 622.943 239.24 625.503 239.24C629.023 239.24 631.956 238.333 634.303 236.52C636.703 234.707 638.169 232.227 638.703 229.08H646.383C645.529 234.147 643.263 238.173 639.583 241.16C635.903 244.093 631.263 245.56 625.663 245.56C621.449 245.56 617.716 244.653 614.463 242.84C611.209 241.027 608.649 238.44 606.783 235.08C604.969 231.667 604.063 227.667 604.063 223.08C604.063 218.493 604.969 214.493 606.783 211.08C608.649 207.667 611.209 205.053 614.463 203.24C617.716 201.427 621.449 200.52 625.663 200.52ZM663.19 185.8V245H655.91V185.8H663.19ZM713.935 201.08V245H706.655V234.68C705.535 238.253 703.535 241 700.655 242.92C697.828 244.787 694.521 245.72 690.735 245.72C685.668 245.72 681.561 244.093 678.415 240.84C675.268 237.533 673.695 232.813 673.695 226.68V201.08H680.975V225.96C680.975 230.333 682.095 233.72 684.335 236.12C686.575 238.467 689.615 239.64 693.455 239.64C697.455 239.64 700.655 238.36 703.055 235.8C705.455 233.187 706.655 229.4 706.655 224.44V201.08H713.935ZM749.838 200.52C753.731 200.52 757.198 201.427 760.238 203.24C763.278 205.053 765.651 207.667 767.358 211.08C769.118 214.493 769.998 218.493 769.998 223.08C769.998 227.667 769.118 231.667 767.358 235.08C765.651 238.44 763.278 241.027 760.238 242.84C757.198 244.653 753.731 245.56 749.838 245.56C745.571 245.56 741.944 244.493 738.958 242.36C736.024 240.173 733.998 237.32 732.878 233.8V245H725.598V185.8H732.878V212.28C733.998 208.76 736.024 205.933 738.958 203.8C741.944 201.613 745.571 200.52 749.838 200.52ZM747.758 207C744.931 207 742.371 207.667 740.078 209C737.784 210.28 735.998 212.147 734.718 214.6C733.438 217.053 732.798 219.88 732.798 223.08C732.798 226.28 733.438 229.107 734.718 231.56C735.998 233.96 737.784 235.827 740.078 237.16C742.371 238.493 744.931 239.16 747.758 239.16C752.291 239.16 755.891 237.747 758.558 234.92C761.278 232.04 762.638 228.093 762.638 223.08C762.638 218.067 761.278 214.147 758.558 211.32C755.891 208.44 752.291 207 747.758 207Z" fill="white" fill-opacity="0.46"/>
<g clip-path="url(#clip0_29_35)">
<path d="M90.9975 238.053C76.5963 237.404 62.0536 236.081 47.7724 234.121L5.72492 228.348C2.96906 227.974 0.425844 229.898 0.04741 232.655C-0.331024 235.412 1.59743 237.954 4.3543 238.333L46.4017 244.105C60.9858 246.107 75.8374 247.458 90.5444 248.12C90.6215 248.124 90.6986 248.125 90.7752 248.125C93.454 248.125 95.6838 246.016 95.8052 243.313C95.9302 240.533 93.778 238.178 90.9975 238.053Z" fill="white"/>
<path d="M226.497 53.4033V38.6837C226.497 22.53 213.355 9.38867 197.202 9.38867H164.158C148.946 9.38867 136.571 21.7641 136.571 36.9755V55.435C136.571 70.7799 149.055 83.2642 164.4 83.2642H177.135C179.705 83.2642 182.156 82.7497 184.394 81.8225C183.474 86.528 182.185 91.1483 180.524 95.6557C177.285 104.447 175.643 113.695 175.643 123.143C175.643 133.865 177.777 144.349 181.884 154.069C165.757 148.816 148.453 148.327 132.063 152.639C115.596 129.549 89.1961 115.87 60.6953 115.87C38.7915 115.87 17.8205 123.995 1.64512 138.75C-0.410815 140.626 -0.557452 143.813 1.31808 145.869C3.19362 147.925 6.38032 148.071 8.43675 146.196C22.7512 133.139 41.31 125.947 60.6953 125.947C84.853 125.947 107.305 137.055 121.966 155.946C118.213 157.436 114.533 159.189 110.957 161.214C108.536 162.585 107.684 165.66 109.056 168.082C110.427 170.504 113.502 171.355 115.923 169.983C140.92 155.83 171.584 156.472 195.95 171.658C196.78 172.175 197.701 172.422 198.611 172.422C200.293 172.422 201.937 171.58 202.892 170.047C204.364 167.685 203.643 164.577 201.281 163.105C199.724 162.135 198.141 161.224 196.541 160.359C189.465 149.241 185.721 136.404 185.721 123.142C185.721 114.887 187.154 106.811 189.98 99.1397C194.085 88.0029 196.165 76.2589 196.166 64.2327V55.5665C196.166 45.0727 187.628 36.5351 177.134 36.5351H170.516C167.734 36.5351 165.477 38.791 165.477 41.5741C165.477 44.3572 167.734 46.6132 170.516 46.6132H177.135C182.072 46.6132 186.089 50.6298 186.089 55.5665V64.2327V64.2332C186.089 69.17 182.072 73.1861 177.135 73.1861H164.4C154.612 73.1861 146.649 65.2229 146.649 55.435V36.9755C146.649 27.3211 154.504 19.4668 164.158 19.4668H197.202C207.798 19.4668 216.419 28.0876 216.419 38.6837V55.048C216.419 56.1249 216.764 57.1735 217.403 58.0402C237.368 85.0934 247.922 117.22 247.922 150.948C247.922 168.991 244.957 186.522 239.11 203.056C234.582 215.86 223.416 225.569 209.97 228.393C185.629 233.505 160.693 236.721 135.855 237.952C133.075 238.089 130.934 240.454 131.072 243.233C131.205 245.928 133.432 248.024 136.1 248.023C136.184 248.023 136.268 248.021 136.354 248.017C161.719 246.76 187.184 243.476 212.041 238.255C228.906 234.713 242.918 222.513 248.612 206.415C254.841 188.8 258 170.138 258 150.948C258 115.609 247.112 81.9183 226.497 53.4033V53.4033Z" fill="white"/>
<path d="M113.44 238.534C112.115 238.534 110.815 239.068 109.877 240.006C108.94 240.943 108.401 242.243 108.401 243.568C108.401 244.899 108.94 246.199 109.877 247.136C110.815 248.073 112.115 248.612 113.44 248.612C114.765 248.612 116.065 248.073 117.003 247.136C117.945 246.194 118.479 244.899 118.479 243.568C118.479 242.243 117.945 240.948 117.003 240.006C116.065 239.068 114.765 238.534 113.44 238.534Z" fill="white"/>
</g>
<defs>
<clipPath id="clip0_29_35">
<rect width="258" height="258" fill="white"/>
</clipPath>
</defs>
</svg>
