<svg width="512" height="512" viewBox="0 0 512 512" fill="none" xmlns="http://www.w3.org/2000/svg">
<path d="M502 76C507.523 76 512 71.522 512 66V10C512 4.478 507.523 0 502 0H10C4.477 0 0 4.478 0 10V66C0 71.522 4.477 76 10 76H74V120H50C22.43 120 0 142.43 0 170V462C0 489.57 22.43 512 50 512H462C489.57 512 512 489.57 512 462V170C512 142.43 489.57 120 462 120H438V76H502ZM20 20H492V56H301.063C295.54 56 291.063 60.478 291.063 66C291.063 71.522 295.54 76 301.063 76H374V120H138V76H211.063C216.586 76 221.063 71.522 221.063 66C221.063 60.478 216.586 56 211.063 56H20V20ZM94 76H118V120H94V76ZM492 170V462C492 478.542 478.542 492 462 492H50C33.458 492 20 478.542 20 462V170C20 153.458 33.458 140 50 140H462C478.542 140 492 153.458 492 170ZM418 120H394V76H418V120Z" fill="#D6FB00"/>
<path d="M417.123 187.589C416.036 182.259 411.483 178.321 406.052 178.015C400.623 177.719 395.654 181.109 393.974 186.283C393.936 186.398 393.901 186.513 393.869 186.63L377.161 245.242L359.838 186.527C359.803 186.409 359.766 186.292 359.727 186.174C357.995 181.014 352.993 177.652 347.561 178.028C342.13 178.391 337.619 182.379 336.59 187.723C336.583 187.761 336.576 187.798 336.569 187.836L321.102 273.531C320.121 278.967 323.731 284.168 329.166 285.148C334.604 286.131 339.802 282.519 340.783 277.084L350.241 224.681L365.815 277.47C365.85 277.589 365.888 277.707 365.927 277.825C367.571 282.719 372.133 285.995 377.29 285.995H377.352C382.534 285.969 387.092 282.639 388.693 277.71C388.73 277.595 388.765 277.479 388.798 277.362L403.836 224.612L413.883 277.184C414.92 282.609 420.161 286.164 425.582 285.129C431.007 284.092 434.564 278.855 433.527 273.43L417.145 187.708C417.139 187.67 417.131 187.629 417.123 187.589Z" fill="#D6FB00"/>
<path d="M132.293 285.996C160.544 285.996 180.276 263.79 180.276 231.996C180.276 226.474 175.799 221.996 170.276 221.996H143.951C138.428 221.996 133.951 226.474 133.951 231.996C133.951 237.518 138.428 241.996 143.951 241.996H159.258C156.625 254.544 148.626 265.996 132.293 265.996C113.545 265.996 98.293 250.744 98.293 231.996C98.293 213.248 113.545 197.996 132.293 197.996C139.107 197.996 145.678 200.002 151.295 203.797C155.873 206.889 162.088 205.685 165.179 201.109C168.271 196.533 167.067 190.317 162.491 187.225C153.554 181.188 143.112 177.996 132.292 177.996C102.516 177.996 78.292 202.221 78.292 231.996C78.292 261.771 102.518 285.996 132.293 285.996Z" fill="#D6FB00"/>
<path d="M240.717 234.009L240.614 275.972C240.6 281.494 245.067 285.983 250.59 285.996H250.615C256.126 285.996 260.601 281.535 260.615 276.02L260.718 234.024L286.984 193.674C289.997 189.045 288.687 182.85 284.059 179.837C279.432 176.823 273.236 178.134 270.223 182.762L250.713 212.734L230.99 182.529C227.97 177.903 221.773 176.601 217.15 179.623C212.525 182.643 211.225 188.839 214.244 193.463L240.717 234.009Z" fill="#D6FB00"/>
<path d="M386.5 308H352.913C329.333 308 309.736 325.379 306.256 348H205.157C201.677 325.379 182.08 308 158.5 308H125.5C99.47 308 78.293 329.177 78.293 355.206V424.794C78.293 450.823 99.47 472 125.5 472H158.5C182.08 472 201.677 454.621 205.157 432H306.256C309.736 454.621 329.333 472 352.913 472H386.5C412.53 472 433.707 450.823 433.707 424.794V355.206C433.707 329.177 412.53 308 386.5 308ZM185.707 424.794C185.707 439.796 173.502 452 158.5 452H125.5C110.498 452 98.293 439.796 98.293 424.794V355.206C98.293 340.204 110.498 328 125.5 328H158.5C173.502 328 185.707 340.204 185.707 355.206V424.794ZM205.707 368H305.707V412H205.707V368ZM413.707 424.794C413.707 439.796 401.502 452 386.5 452H352.913C337.911 452 325.706 439.796 325.706 424.794V355.206C325.706 340.204 337.911 328 352.913 328H386.5C401.502 328 413.707 340.204 413.707 355.206V424.794Z" fill="#D6FB00"/>
<path d="M256.06 76.0601C258.7 76.0601 261.27 75.0001 263.14 73.1301C265 71.2701 266.06 68.6901 266.06 66.0601C266.06 63.4301 265 60.8501 263.14 58.9911C261.27 57.1311 258.7 56.0601 256.06 56.0601C253.43 56.0601 250.85 57.1301 248.99 58.9911C247.13 60.8501 246.06 63.4301 246.06 66.0601C246.06 68.6901 247.13 71.2701 248.99 73.1301C250.85 75.0001 253.43 76.0601 256.06 76.0601Z" fill="#D6FB00"/>
</svg>
