<svg width="512" height="512" viewBox="0 0 512 512" fill="none" xmlns="http://www.w3.org/2000/svg">
<g clip-path="url(#clip0_4_338)">
<path d="M97.333 202H153.333C158.856 202 163.333 197.522 163.333 192V136C163.333 130.478 158.856 126 153.333 126H97.333C91.81 126 87.333 130.478 87.333 136V192C87.333 197.522 91.811 202 97.333 202ZM107.333 146H143.333V182H107.333V146Z" fill="#D6FB00"/>
<path d="M97.333 314H153.333C158.856 314 163.333 309.522 163.333 304V248C163.333 242.478 158.856 238 153.333 238H97.333C91.81 238 87.333 242.478 87.333 248V304C87.333 309.522 91.811 314 97.333 314ZM107.333 258H143.333V294H107.333V258Z" fill="#D6FB00"/>
<path d="M464.793 348H431.206C421.08 348 411.696 351.216 403.999 356.665V70C403.999 42.43 381.569 20 353.999 20H288.97C283.625 8.219 271.758 0 258 0H146C132.242 0 120.375 8.219 115.029 20H50C22.43 20 0 42.43 0 70V462C0 489.57 22.43 512 50 512H354C369.925 512 384.123 504.508 393.286 492.874C401.896 504.47 415.687 512 431.207 512H464.794C490.824 512 512.001 490.823 512.001 464.794V395.206C512 369.177 490.823 348 464.793 348ZM284 408H384V452H284V408ZM384 70V388H364V70C364 64.478 359.523 60 354 60H292V40H354C370.542 40 384 53.458 384 70ZM146 20H258C265.72 20 272 26.28 272 34V66C272 73.72 265.72 80 258 80H146C138.28 80 132 73.72 132 66V34C132 26.28 138.28 20 146 20ZM20 462V70C20 53.458 33.458 40 50 40H112V60H50C44.477 60 40 64.478 40 70V221C40 226.522 44.477 231 50 231C55.523 231 60 226.522 60 221V80H115.029C120.376 91.781 132.243 100 146 100H258C271.758 100 283.625 91.781 288.971 80H344V388H283.45C282.317 380.635 279.466 373.834 275.335 368H306.666C312.189 368 316.666 363.522 316.666 358C316.666 352.478 312.189 348 306.666 348H203.793C186.641 348 171.6 357.197 163.333 370.916V360C163.333 354.478 158.856 350 153.333 350H97.333C91.81 350 87.333 354.478 87.333 360V416C87.333 421.522 91.81 426 97.333 426H153.333C154.474 426 155.565 425.8 156.586 425.448V452H60V311C60 305.478 55.523 301 50 301C44.477 301 40 305.478 40 311V462C40 467.522 44.477 472 50 472H157.137C158.27 479.365 161.121 486.166 165.252 492H50C33.458 492 20 478.542 20 462V462ZM143.333 370V406H107.333V370H143.333ZM203.793 492C188.791 492 176.586 479.796 176.586 464.794V395.206C176.586 380.204 188.791 368 203.793 368H236.793C251.795 368 264 380.204 264 395.206V464.794C264 479.796 251.795 492 236.793 492H203.793ZM354 492H275.335C279.466 486.166 282.317 479.365 283.45 472H382.28C378.152 483.639 367.036 492 354 492ZM492 464.794C492 479.796 479.795 492 464.793 492H431.206C416.205 492 404 479.796 404 464.794V395.206C404 380.204 416.205 368 431.207 368H464.794C479.795 368 492 380.204 492 395.206V464.794Z" fill="#D6FB00"/>
<path d="M205.667 202H306.667C312.19 202 316.667 197.522 316.667 192C316.667 186.478 312.19 182 306.667 182H205.667C200.144 182 195.667 186.478 195.667 192C195.667 197.522 200.144 202 205.667 202V202Z" fill="#D6FB00"/>
<path d="M205.667 146H306.667C312.19 146 316.667 141.522 316.667 136C316.667 130.478 312.19 126 306.667 126H205.667C200.144 126 195.667 130.478 195.667 136C195.667 141.522 200.144 146 205.667 146V146Z" fill="#D6FB00"/>
<path d="M205.667 314H306.667C312.19 314 316.667 309.522 316.667 304C316.667 298.478 312.19 294 306.667 294H205.667C200.144 294 195.667 298.478 195.667 304C195.667 309.522 200.144 314 205.667 314V314Z" fill="#D6FB00"/>
<path d="M205.667 258H306.667C312.19 258 316.667 253.522 316.667 248C316.667 242.478 312.19 238 306.667 238H205.667C200.144 238 195.667 242.478 195.667 248C195.667 253.522 200.144 258 205.667 258V258Z" fill="#D6FB00"/>
<path d="M50 276C52.63 276 55.21 274.93 57.07 273.069C58.93 271.21 60 268.63 60 266C60 263.37 58.93 260.79 57.07 258.93C55.21 257.07 52.63 256 50 256C47.37 256 44.79 257.069 42.93 258.93C41.07 260.79 40 263.37 40 266C40 268.63 41.07 271.21 42.93 273.069C44.79 274.93 47.37 276 50 276Z" fill="#D6FB00"/>
<path d="M186 4.5H152V-45C152 -55.477 143.477 -64 133 -64H93V-77C93 -87.477 84.477 -96 74 -96H33C22.523 -96 14 -87.477 14 -77V4H-15.001C-20.524 4 -25.001 8.477 -25.001 14C-25.001 19.523 -20.524 24 -15.001 24H14V52H-134V24H-104.999C-99.476 24 -94.999 19.523 -94.999 14C-94.999 8.477 -99.476 4 -104.999 4H-134V-77C-134 -87.477 -142.523 -96 -153 -96H-194C-204.477 -96 -213 -87.477 -213 -77V-64H-253C-263.477 -64 -272 -55.477 -272 -45V4H-306C-311.523 4 -316 8.477 -316 14V14.5V61.5V62C-316 67.523 -311.523 72 -306 72H-272V121C-272 131.477 -263.477 140 -253 140H-213V153C-213 163.477 -204.477 172 -194 172H-153C-142.523 172 -134 163.477 -134 153V72H14V153C14 163.477 22.523 172 33 172H74C84.477 172 93 163.477 93 153V140H133C143.477 140 152 131.477 152 121V71.5H186C191.523 71.5 196 67.023 196 61.5V14.5C196 8.977 191.523 4.5 186 4.5ZM-272 24.5V51.5H-296V24.5H-272ZM-252 120V-44H-213V120H-252ZM-154 152H-193V-76H-154V152ZM73 152H34V-76H73V152ZM132 120H93V-44H132V120ZM176 51.5H152V24.5H176V51.5Z" fill="#D6FB00"/>
</g>
<defs>
<clipPath id="clip0_4_338">
<rect width="512" height="512" fill="white"/>
</clipPath>
</defs>
</svg>
