<svg width="512" height="512" viewBox="0 0 512 512" fill="none" xmlns="http://www.w3.org/2000/svg">
<path d="M391.092 239.512C389.21 236.921 386.202 235.388 383 235.388C379.798 235.388 376.79 236.921 374.908 239.512L339.635 288.083C324.054 309.539 326.354 338.721 345.104 357.471C355.227 367.593 368.685 373.168 383 373.168C397.315 373.168 410.773 367.593 420.896 357.471C439.646 338.721 441.946 309.539 426.365 288.083L391.092 239.512ZM406.754 343.329C393.656 356.428 372.344 356.428 359.246 343.329C347.493 331.577 346.052 313.285 355.818 299.835L383 262.406L410.182 299.835C419.948 313.284 418.507 331.576 406.754 343.329V343.329Z" fill="#D6FB00"/>
<path d="M445 105.006V78.25C445 61.57 431.43 48 414.75 48H413V30C413 13.458 399.542 0 383 0C366.458 0 353 13.458 353 30V48H351.25C334.57 48 321 61.57 321 78.25V105.006C298.205 109.652 281 129.853 281 154V291.55C259.818 270.851 230.931 259.453 199.633 259.453C193.923 259.453 188.241 259.923 182.629 260.831C188.413 238.246 208.937 221.5 233.3 221.5C238.823 221.5 243.3 217.023 243.3 211.5C243.3 205.977 238.823 201.5 233.3 201.5C213.924 201.5 196.318 209.176 183.323 221.629C181.999 217.366 180.207 213.217 177.92 209.256C169.867 195.307 156.863 185.329 141.305 181.161L120.86 175.682C115.523 174.252 110.042 177.418 108.612 182.753L103.133 203.199C97.339 224.824 104.131 246.897 118.982 261.645C96.772 265.886 76.659 276.188 60.857 291.685C39.025 313.098 27 343.168 27 376.358C27 393.875 30.956 411.483 38.757 428.695C41.036 433.725 46.964 435.955 51.993 433.674C57.023 431.394 59.253 425.468 56.972 420.438C50.355 405.838 46.999 391.007 46.999 376.358C46.999 320.207 87.106 279.452 142.366 279.452C151.079 279.452 159.713 280.763 168.03 283.349C169.964 283.951 172.035 283.951 173.968 283.349C182.285 280.763 190.919 279.452 199.632 279.452C254.891 279.452 294.999 320.207 294.999 376.358C294.999 404.214 282.507 433.383 260.727 456.384C239.294 479.019 212.542 492 187.333 492C182.378 492 177.487 491.566 172.795 490.71C171.608 490.493 170.393 490.493 169.206 490.71C164.514 491.565 159.623 492 154.668 492C140.785 492 126.004 487.932 111.923 480.234C107.079 477.585 101.002 479.366 98.352 484.212C95.703 489.058 97.484 495.134 102.33 497.783C119.344 507.084 137.442 512 154.667 512C160.198 512 165.683 511.562 171 510.695C176.316 511.561 181.802 512 187.333 512C218.012 512 250.056 496.741 275.25 470.136C277.252 468.022 279.178 465.856 281.043 463.652C281.918 490.459 303.984 512 331 512H435C462.57 512 485 489.57 485 462V154C485 129.854 467.795 109.652 445 105.006V105.006ZM122.454 208.375L125.344 197.589L136.131 200.479C146.528 203.265 155.219 209.934 160.602 219.256C165.984 228.578 167.414 239.439 164.628 249.837L161.738 260.623L150.952 257.733C129.486 251.982 116.703 229.84 122.454 208.375V208.375ZM373 30C373 24.486 377.486 20 383 20C388.514 20 393 24.486 393 30V48H373V30ZM341 78.25C341 72.598 345.598 68 351.25 68H414.75C420.402 68 425 72.598 425 78.25V104H341V78.25ZM465 462C465 478.542 451.542 492 435 492H331C314.458 492 301 478.542 301 462V433.389C310.084 415.103 315 395.518 315 376.358C315 355.271 310.14 335.448 301 318.3V154C301 137.458 314.458 124 331 124H435C451.542 124 465 137.458 465 154V462Z" fill="#D6FB00"/>
<path d="M72.8401 452C70.2101 452 67.6301 453.07 65.7701 454.93C63.9101 456.79 62.8401 459.37 62.8401 462C62.8401 464.63 63.9101 467.21 65.7701 469.07C67.6301 470.93 70.2101 472 72.8401 472C75.4801 472 78.0501 470.93 79.9101 469.07C81.7801 467.21 82.8401 464.63 82.8401 462C82.8401 459.37 81.7801 456.79 79.9101 454.93C78.0601 453.07 75.4801 452 72.8401 452Z" fill="#D6FB00"/>
</svg>
