<svg width="512" height="512" viewBox="0 0 512 512" fill="none" xmlns="http://www.w3.org/2000/svg">
<g clip-path="url(#clip0_4_210)">
<path d="M25.041 433.085C19.518 433.085 15.041 437.563 15.041 443.085V502C15.041 507.522 19.518 512 25.041 512C30.564 512 35.041 507.522 35.041 502V443.085C35.041 437.563 30.563 433.085 25.041 433.085V433.085Z" fill="#D6FB00"/>
<path d="M463.041 388H433.041C427.955 388 423.131 389.13 418.795 391.14C415.174 338.116 370.886 296.082 316.959 296.082H267.082C262.288 296.082 258.388 292.182 258.388 287.388V266.574C266.211 261.986 273.203 256.141 279.097 249.315C313.147 228.896 333.432 194.021 333.432 155.689C333.432 109.47 303.474 69.785 261.056 53.248C261.581 50.49 261.859 47.678 261.859 44.821C261.859 20.105 241.754 0 217.041 0C192.328 0 172.222 20.105 172.222 44.819C172.222 47.673 172.496 50.487 173.022 53.247C130.605 69.785 100.649 109.469 100.649 155.687C100.649 194.019 120.935 228.894 154.985 249.313C160.879 256.14 167.872 261.984 175.694 266.573V287.387C175.694 292.181 171.794 296.081 167 296.081H117.123C79.658 296.081 45.266 316.549 27.368 349.497C24.732 354.351 26.529 360.422 31.382 363.058C32.899 363.882 34.534 364.273 36.147 364.273C39.694 364.273 43.13 362.381 44.943 359.044C56.782 337.252 77.591 322.257 101.365 317.613V368.233C101.365 377.807 97.942 387.089 91.726 394.371C79.754 408.394 73.161 426.272 73.161 444.712C73.161 463.858 80.203 482.249 92.991 496.497L103.922 508.678C105.898 510.879 108.627 511.999 111.368 511.999C113.746 511.999 116.134 511.155 118.043 509.441C122.153 505.753 122.496 499.43 118.807 495.32L107.876 483.138C98.387 472.566 93.161 458.918 93.161 444.711C93.161 431.028 98.054 417.762 106.937 407.356C116.241 396.458 121.365 382.563 121.365 368.233V316.081H146.804C151.187 350.951 181.003 378.019 217.042 378.019C253.081 378.019 282.897 350.951 287.28 316.081H312.718V368.233C312.718 375.026 313.883 381.717 316.085 388.042C315.518 388.014 314.948 387.999 314.375 387.999H284.799C266.051 387.999 250.799 403.251 250.799 421.999V477.999C250.799 496.747 266.051 511.999 284.799 511.999H314.375C331.424 511.999 345.579 499.385 348.004 482.999H399.411C401.837 499.385 415.991 511.999 433.04 511.999H463.04C481.788 511.999 497.04 496.747 497.04 477.999V421.999C497.041 403.252 481.789 388 463.041 388V388ZM399.041 398.163V417H355.787C352.628 408.773 348.064 401.057 342.357 394.371C336.141 387.091 332.718 377.808 332.718 368.234V317.616C370.462 324.987 399.041 358.293 399.041 398.163V398.163ZM192.222 44.819C192.222 31.133 203.356 20 217.041 20C230.726 20 241.86 31.134 241.86 44.819C241.86 45.732 241.809 46.636 241.713 47.531C233.758 45.892 225.505 45.02 217.041 45.02C208.578 45.02 200.326 45.891 192.372 47.53C192.275 46.636 192.222 45.732 192.222 44.819V44.819ZM120.648 155.688C120.648 105.694 163.889 65.021 217.04 65.021C270.19 65.021 313.432 105.694 313.432 155.688C313.432 173.217 308.175 189.882 298.622 204.1C298.897 201.372 299.04 198.605 299.04 195.806V161.545C299.04 156.023 294.562 151.545 289.04 151.545C267.992 151.545 248.193 142.25 234.719 126.044C232.975 123.946 230.45 122.651 227.728 122.461C225.012 122.261 222.326 123.2 220.306 125.034C199.671 143.774 172.941 154.096 145.039 154.096C139.516 154.096 135.039 158.574 135.039 164.096V195.806C135.039 198.605 135.182 201.372 135.457 204.1C125.906 189.881 120.648 173.216 120.648 155.688V155.688ZM155.041 195.805V173.719C180.992 171.761 205.691 162.21 226.194 146.207C240.612 160.108 259.147 168.803 279.041 170.995V195.805C279.041 229.992 251.228 257.805 217.041 257.805C182.854 257.805 155.041 229.991 155.041 195.805ZM217.041 358.021C192.051 358.021 171.231 339.882 167.019 316.082C182.832 316.072 195.694 303.204 195.694 287.388V274.969C202.505 276.807 209.657 277.805 217.041 277.805C224.425 277.805 231.577 276.807 238.388 274.969V287.388C238.388 303.204 251.25 316.072 267.064 316.082C262.851 339.882 242.031 358.021 217.041 358.021V358.021ZM328.375 478C328.375 485.72 322.095 492 314.375 492H284.799C277.079 492 270.799 485.72 270.799 478V422C270.799 414.28 277.079 408 284.799 408H314.375C322.095 408 328.375 414.28 328.375 422V478ZM348.375 437H348.388C348.443 437.001 399.041 437 399.041 437V463H348.375V437ZM477.041 478C477.041 485.72 470.761 492 463.041 492H433.041C425.321 492 419.041 485.72 419.041 478V422C419.041 414.28 425.321 408 433.041 408H463.041C470.761 408 477.041 414.28 477.041 422V478Z" fill="#D6FB00"/>
<path d="M235.611 221.876C239.517 217.972 239.517 211.64 235.612 207.734C231.708 203.829 225.375 203.829 221.47 207.733C219.027 210.174 215.053 210.174 212.611 207.733C208.706 203.829 202.374 203.829 198.469 207.733C194.564 211.639 194.564 217.97 198.469 221.876C203.59 226.996 210.313 229.556 217.04 229.556C223.765 229.556 230.492 226.995 235.611 221.876Z" fill="#D6FB00"/>
<path d="M24.959 408.08C27.589 408.08 30.169 407.01 32.029 405.149C33.889 403.29 34.959 400.719 34.959 398.08C34.959 395.45 33.889 392.87 32.029 391.01C30.169 389.15 27.589 388.08 24.959 388.08C22.319 388.08 19.749 389.149 17.889 391.01C16.029 392.87 14.959 395.45 14.959 398.08C14.959 400.72 16.029 403.29 17.889 405.149C19.75 407.01 22.329 408.08 24.959 408.08V408.08Z" fill="#D6FB00"/>
</g>
<defs>
<clipPath id="clip0_4_210">
<rect width="512" height="512" fill="white"/>
</clipPath>
</defs>
</svg>
