<svg width="512" height="512" viewBox="0 0 512 512" fill="none" xmlns="http://www.w3.org/2000/svg">
<g clip-path="url(#clip0_4_387)">
<path d="M312.167 424.001C337.531 424.001 358.167 403.365 358.167 378.001C358.167 352.637 337.531 332.001 312.167 332.001C286.803 332.001 266.167 352.637 266.167 378.001C266.167 378.356 266.186 378.706 266.194 379.059L239.348 385.691C234.64 375.273 224.157 368.001 212 368.001H199.333C182.791 368.001 169.333 381.459 169.333 398.001C169.333 414.543 182.791 428.001 199.333 428.001H212C225.808 428.001 237.46 418.621 240.937 405.9L270.991 398.474C278.538 413.59 294.156 424.001 312.167 424.001V424.001ZM212 408.001H199.333C193.819 408.001 189.333 403.515 189.333 398.001C189.333 392.487 193.819 388.001 199.333 388.001H212C217.514 388.001 222 392.487 222 398.001C222 403.515 217.515 408.001 212 408.001ZM312.167 352.001C326.503 352.001 338.167 363.664 338.167 378.001C338.167 392.338 326.503 404.001 312.167 404.001C303.617 404.001 296.02 399.852 291.279 393.462L314.566 387.709C319.928 386.385 323.2 380.964 321.876 375.603C320.552 370.241 315.132 366.966 309.77 368.293L286.468 374.05C288.375 361.581 299.173 352.001 312.167 352.001V352.001Z" fill="#D6FB00"/>
<path d="M437.999 448H368.498C388.917 431.487 401.999 406.245 401.999 378C401.999 342.29 381.093 311.372 350.878 296.839L405.624 146.516H444.372C463.12 146.516 478.372 131.264 478.372 112.516C478.372 93.7678 463.12 78.5158 444.372 78.5158H370.356C351.608 78.5158 336.356 93.7678 336.356 112.516C336.356 131.264 351.608 146.516 370.356 146.516H384.339L331.996 290.242C325.563 288.777 318.87 288 312 288H254.335C211.363 288 172.724 306.883 146.261 336.78L119.869 310.593L201.83 101.966L221.472 67.9449C224.234 63.1619 222.595 57.0469 217.812 54.2849L126.109 1.34199C121.325 -1.42 115.21 0.218996 112.449 5.00199L92.4489 39.6429C89.6869 44.4259 91.3259 50.5409 96.1089 53.3029L145.32 81.7148L115.301 158.128C113.281 163.268 115.812 169.072 120.952 171.092C122.153 171.564 123.39 171.787 124.606 171.787C128.597 171.787 132.368 169.381 133.916 165.44L162.835 91.8268L180.351 101.94L98.8468 309.403C97.3878 313.119 98.2768 317.346 101.111 320.158L133.975 352.766C130.397 358.16 127.166 363.802 124.327 369.669L73.5529 318.814L100.999 249.228C103.025 244.091 100.503 238.284 95.3648 236.257C90.2289 234.234 84.4199 236.753 82.3929 241.891L52.5419 317.573C51.0819 321.275 51.9559 325.491 54.7679 328.307L116.344 389.981C112.223 403.38 109.999 417.601 109.999 432.334C109.999 437.952 111.309 443.269 113.633 448.001H73.9999C44.224 448.001 20 472.226 20 502.001C20 507.523 24.477 512.001 30 512.001H481.999C487.522 512.001 491.999 507.523 491.999 502.001C491.999 472.224 467.775 448 437.999 448V448ZM356.356 112.516C356.356 104.796 362.636 98.5158 370.356 98.5158H444.372C452.091 98.5158 458.372 104.796 458.372 112.516C458.372 120.236 452.092 126.516 444.372 126.516H370.356C362.636 126.516 356.356 120.236 356.356 112.516ZM124.769 23.6619L199.15 66.6049L189.15 83.9258L114.769 40.9819L124.769 23.6619ZM130 432.333C130 418.414 132.299 405.022 136.537 392.517C137.192 391.41 137.615 390.207 137.806 388.972C155.442 341.732 201.02 308 254.333 308H311.999C350.597 308 381.999 339.402 381.999 378C381.999 416.598 350.597 448 311.999 448H145.667C137.028 448 130 440.972 130 432.333V432.333ZM41.501 492C45.7809 478.117 58.7309 468 74.0009 468H438C453.269 468 466.22 478.117 470.5 492H41.501Z" fill="#D6FB00"/>
<path d="M108.15 213.671C110.78 213.671 113.36 212.601 115.23 210.741C117.09 208.871 118.15 206.301 118.15 203.671C118.15 201.03 117.09 198.461 115.23 196.591C113.36 194.731 110.79 193.671 108.15 193.671C105.52 193.671 102.95 194.731 101.08 196.591C99.2199 198.461 98.1599 201.03 98.1599 203.671C98.1599 206.301 99.2199 208.871 101.08 210.741C102.95 212.6 105.52 213.671 108.15 213.671Z" fill="#D6FB00"/>
</g>
<defs>
<clipPath id="clip0_4_387">
<rect width="512" height="512" fill="white"/>
</clipPath>
</defs>
</svg>
