<svg width="512" height="512" viewBox="0 0 512 512" fill="none" xmlns="http://www.w3.org/2000/svg">
<g clip-path="url(#clip0_4_293)">
<path d="M180.584 472.415C152.005 471.128 123.145 468.502 94.8041 464.612L11.3611 453.157C5.89209 452.414 0.845085 456.233 0.0940851 461.704C-0.656915 467.175 3.17008 472.22 8.64108 472.971L92.0841 484.426C121.026 488.399 150.499 491.08 179.685 492.394C179.838 492.401 179.991 492.404 180.143 492.404C185.459 492.404 189.884 488.218 190.125 482.854C190.373 477.338 186.102 472.664 180.584 472.415Z" fill="#D6FB00"/>
<path d="M449.482 105.979V76.7677C449.482 44.7108 423.402 18.6318 391.346 18.6318H325.77C295.583 18.6318 271.025 43.1908 271.025 73.3777V110.011C271.025 140.463 295.799 165.238 326.251 165.238H351.524C356.623 165.238 361.487 164.217 365.929 162.377C364.104 171.715 361.546 180.883 358.249 189.828C351.821 207.274 348.562 225.626 348.562 244.376C348.562 265.654 352.798 286.459 360.949 305.75C328.944 295.325 294.605 294.355 262.079 302.911C229.401 257.09 177.01 229.943 120.45 229.943C76.9819 229.943 35.3649 246.068 3.26501 275.349C-0.814987 279.071 -1.10599 285.396 2.61601 289.476C6.338 293.556 12.662 293.847 16.743 290.125C45.1499 264.213 81.9799 249.942 120.45 249.942C168.391 249.942 212.948 271.984 242.042 309.475C234.593 312.43 227.291 315.91 220.195 319.928C215.389 322.649 213.699 328.751 216.421 333.557C219.142 338.364 225.244 340.053 230.05 337.331C279.655 309.243 340.507 310.517 388.863 340.655C390.509 341.681 392.337 342.17 394.142 342.17C397.48 342.17 400.743 340.499 402.638 337.458C405.56 332.771 404.128 326.603 399.441 323.682C396.351 321.756 393.21 319.949 390.034 318.232C375.993 296.168 368.562 270.693 368.562 244.375C368.562 227.993 371.407 211.966 377.015 196.742C385.16 174.642 389.289 151.336 389.29 127.47V110.272C389.29 89.4467 372.348 72.5037 351.522 72.5037H338.389C332.867 72.5037 328.389 76.9807 328.389 82.5037C328.389 88.0267 332.867 92.5037 338.389 92.5037H351.524C361.321 92.5037 369.292 100.475 369.292 110.272V127.47V127.471C369.292 137.268 361.321 145.238 351.524 145.238H326.251C306.827 145.238 291.025 129.435 291.025 110.011V73.3777C291.025 54.2188 306.612 38.6318 325.77 38.6318H391.346C412.374 38.6318 429.482 55.7398 429.482 76.7677V109.243C429.482 111.38 430.167 113.461 431.436 115.181C471.057 168.868 492 232.623 492 299.556C492 335.361 486.117 370.152 474.514 402.963C465.528 428.373 443.368 447.64 416.684 453.245C368.38 463.39 318.895 469.772 269.603 472.214C264.087 472.487 259.837 477.18 260.111 482.696C260.376 488.044 264.795 492.202 270.09 492.201C270.256 492.201 270.424 492.197 270.593 492.189C320.931 489.695 371.466 483.178 420.795 472.817C454.263 465.787 482.071 441.576 493.369 409.63C505.731 374.672 512 337.638 512 299.555C512 229.426 490.394 162.567 449.482 105.979Z" fill="#D6FB00"/>
<path d="M225.121 473.37C222.491 473.37 219.911 474.43 218.051 476.29C216.191 478.15 215.121 480.73 215.121 483.36C215.121 486 216.191 488.58 218.051 490.44C219.911 492.3 222.491 493.37 225.121 493.37C227.751 493.37 230.331 492.3 232.191 490.44C234.061 488.57 235.121 486 235.121 483.36C235.121 480.73 234.061 478.16 232.191 476.29C230.331 474.43 227.751 473.37 225.121 473.37Z" fill="#D6FB00"/>
</g>
<defs>
<clipPath id="clip0_4_293">
<rect width="512" height="512" fill="white"/>
</clipPath>
</defs>
</svg>
