<svg width="512" height="512" viewBox="0 0 512 512" fill="none" xmlns="http://www.w3.org/2000/svg">
<path d="M255.999 148.004C168.875 148.004 97.9951 218.885 97.9951 306.008C97.9951 393.131 168.875 464.012 255.999 464.012C343.122 464.012 414.003 393.131 414.003 306.008C414.003 218.885 343.123 148.004 255.999 148.004ZM255.999 444.011C179.904 444.011 117.996 382.104 117.996 306.008C117.996 229.912 179.904 168.004 255.999 168.004C332.095 168.004 394.003 229.912 394.003 306.008C394.003 382.104 332.095 444.011 255.999 444.011Z" fill="#D6FB00"/>
<path d="M256.129 212.005C258.759 212.005 261.329 210.935 263.199 209.074C265.058 207.215 266.129 204.635 266.129 202.005C266.129 199.375 265.059 196.795 263.199 194.935C261.339 193.075 258.759 192.005 256.129 192.005C253.489 192.005 250.919 193.074 249.059 194.935C247.199 196.795 246.129 199.375 246.129 202.005C246.129 204.635 247.199 207.215 249.059 209.074C250.919 210.935 253.499 212.005 256.129 212.005Z" fill="#D6FB00"/>
<path d="M256.129 400.01C253.499 400.01 250.919 401.079 249.049 402.94C247.189 404.8 246.129 407.38 246.129 410.01C246.129 412.64 247.189 415.22 249.049 417.079C250.919 418.939 253.499 420.01 256.129 420.01C258.759 420.01 261.339 418.94 263.199 417.079C265.058 415.22 266.129 412.64 266.129 410.01C266.129 407.38 265.059 404.8 263.199 402.94C261.339 401.079 258.759 400.01 256.129 400.01Z" fill="#D6FB00"/>
<path d="M367.203 298.937C365.343 297.077 362.763 296.007 360.133 296.007C357.493 296.007 354.913 297.076 353.063 298.937C351.193 300.797 350.133 303.367 350.133 306.007C350.133 308.647 351.193 311.217 353.063 313.076C354.923 314.936 357.494 316.007 360.133 316.007C362.763 316.007 365.343 314.937 367.203 313.076C369.062 311.217 370.133 308.637 370.133 306.007C370.133 303.377 369.062 300.797 367.203 298.937Z" fill="#D6FB00"/>
<path d="M152.126 296.007C149.486 296.007 146.916 297.076 145.056 298.937C143.186 300.797 142.126 303.377 142.126 306.007C142.126 308.637 143.186 311.217 145.056 313.076C146.916 314.936 149.496 316.007 152.126 316.007C154.756 316.007 157.326 314.937 159.196 313.076C161.056 311.217 162.126 308.637 162.126 306.007C162.126 303.377 161.056 300.797 159.196 298.937C157.336 297.076 154.756 296.007 152.126 296.007Z" fill="#D6FB00"/>
<path d="M182.587 369.549C179.957 369.549 177.377 370.618 175.517 372.479C173.647 374.339 172.587 376.919 172.587 379.549C172.587 382.179 173.647 384.759 175.517 386.618C177.377 388.478 179.957 389.549 182.587 389.549C185.217 389.549 187.797 388.479 189.657 386.618C191.517 384.759 192.587 382.179 192.587 379.549C192.587 376.919 191.517 374.339 189.657 372.479C187.797 370.618 185.217 369.549 182.587 369.549Z" fill="#D6FB00"/>
<path d="M329.671 369.549C327.031 369.549 324.461 370.618 322.591 372.479C320.731 374.339 319.671 376.919 319.671 379.549C319.671 382.179 320.731 384.759 322.591 386.618C324.461 388.478 327.031 389.549 329.671 389.549C332.301 389.549 334.881 388.479 336.741 386.618C338.6 384.759 339.671 382.179 339.671 379.549C339.671 376.919 338.601 374.339 336.741 372.479C334.881 370.618 332.301 369.549 329.671 369.549Z" fill="#D6FB00"/>
<path d="M182.587 222.466C179.947 222.466 177.377 223.536 175.517 225.396C173.657 227.256 172.587 229.836 172.587 232.466C172.587 235.096 173.657 237.676 175.517 239.536C177.377 241.395 179.957 242.466 182.587 242.466C185.217 242.466 187.797 241.396 189.657 239.536C191.517 237.676 192.587 235.096 192.587 232.466C192.587 229.836 191.517 227.256 189.657 225.396C187.797 223.536 185.217 222.466 182.587 222.466Z" fill="#D6FB00"/>
<path d="M336.739 239.538C340.644 235.633 340.644 229.301 336.739 225.395C332.833 221.491 326.503 221.491 322.596 225.395L270.498 277.493C266.142 275.269 261.217 274.006 256 274.006C238.355 274.006 224 288.361 224 306.007C224 323.652 238.355 338.008 256 338.008C273.646 338.008 288.001 323.652 288.001 306.007C288.001 300.857 286.771 295.992 284.6 291.677L336.739 239.538ZM255.999 318.008C249.382 318.008 243.999 312.625 243.999 306.008C243.999 299.391 249.382 294.008 255.999 294.008C262.616 294.008 268 299.391 268 306.008C268 312.625 262.617 318.008 255.999 318.008Z" fill="#D6FB00"/>
<path d="M459.981 172.78C467.941 172.78 475.424 169.679 481.051 164.051C486.681 158.423 489.781 150.94 489.781 142.98C489.781 135.02 486.68 127.537 481.051 121.908L440.097 80.9541C434.468 75.3259 426.985 72.2248 419.026 72.2248C411.066 72.2248 403.582 75.3259 397.955 80.9541C392.326 86.5822 389.226 94.0654 389.226 102.026C389.226 109.148 391.716 115.885 396.271 121.258L377.746 139.784C353.588 122.011 326.049 109.858 296.75 104.011V72.0018H298.5C318.351 72.0018 334.501 55.8524 334.501 36.0009C334.501 16.1494 318.351 0 298.5 0H213.498C193.646 0 177.497 16.1494 177.497 36.0009C177.497 55.8524 193.646 72.0018 213.498 72.0018H215.248V104.011C185.949 109.859 158.41 122.011 134.252 139.784L115.726 121.258C120.282 115.885 122.77 109.148 122.77 102.026C122.77 94.0654 119.67 86.5822 114.042 80.9541C108.414 75.3259 100.931 72.2248 92.9706 72.2248C85.0114 72.2248 77.5282 75.3259 71.8991 80.9541L30.945 121.908C25.3169 127.537 22.2168 135.02 22.2168 142.98C22.2168 150.94 25.3169 158.423 30.945 164.051C36.5732 169.679 44.0564 172.78 52.0166 172.78C59.1397 172.78 65.8769 170.29 71.249 165.735L89.7875 184.274C30.723 264.817 37.5702 378.914 110.331 451.675C143.401 484.745 187.168 505.741 233.57 510.795C240.97 511.602 248.392 512 255.8 512C294.142 512 332.106 501.314 364.641 481.086C369.332 478.171 370.771 472.004 367.855 467.314C364.94 462.625 358.774 461.185 354.082 464.102C280.366 509.929 185.946 499.005 124.473 437.533C51.9505 365.009 51.9506 247.006 124.474 174.483C159.605 139.352 206.315 120.003 255.999 120.003C305.682 120.003 352.392 139.352 387.523 174.483C448.996 235.956 459.921 330.374 414.093 404.092C411.177 408.782 412.615 414.949 417.306 417.864C421.996 420.782 428.162 419.342 431.077 414.651C455.213 375.829 465.764 329.279 460.785 283.579C456.873 247.661 443.401 213.325 422.179 184.304L440.747 165.736C446.122 170.291 452.859 172.78 459.981 172.78ZM412.098 95.0964C413.949 93.2454 416.41 92.2263 419.027 92.2263C421.644 92.2263 424.105 93.2464 425.956 95.0974L466.91 136.051C468.762 137.903 469.781 140.364 469.781 142.981C469.781 145.598 468.761 148.059 466.91 149.911C465.059 151.762 462.598 152.781 459.981 152.781C457.364 152.781 454.903 151.761 453.052 149.91L412.098 108.956C410.246 107.105 409.227 104.644 409.227 102.027C409.227 99.4095 410.247 96.9475 412.098 95.0964ZM197.497 36.0009C197.497 27.1787 204.675 20.0005 213.498 20.0005H298.5C307.322 20.0005 314.5 27.1787 314.5 36.0009C314.5 44.8231 307.322 52.0013 298.5 52.0013H213.498C204.675 52.0013 197.497 44.8231 197.497 36.0009ZM52.0176 152.78C49.4005 152.78 46.9394 151.76 45.0884 149.909C43.2373 148.058 42.2183 145.597 42.2183 142.98C42.2183 140.363 43.2383 137.902 45.0894 136.05L86.0434 95.0964C87.8945 93.2444 90.3555 92.2253 92.9726 92.2253C95.5897 92.2253 98.0507 93.2454 99.9018 95.0964C101.753 96.9475 102.772 99.4085 102.772 102.026C102.772 104.643 101.752 107.104 99.9008 108.955L58.9467 149.909C57.0957 151.761 54.6346 152.78 52.0176 152.78ZM85.4704 151.671L101.662 135.479L118.654 152.472C115.822 155.012 104.998 165.836 102.465 168.664L85.4704 151.671ZM235.248 101.032V72.0018H276.749V101.032C269.898 100.351 262.975 100.003 255.999 100.003C249.023 100.003 242.099 100.351 235.248 101.032ZM409.528 168.67C406.987 165.827 396.176 155.012 393.344 152.472L410.337 135.479L426.528 151.671L409.528 168.67Z" fill="#D6FB00"/>
<path d="M394.593 434.601C391.963 434.601 389.383 435.671 387.523 437.531C385.664 439.391 384.593 441.971 384.593 444.601C384.593 447.241 385.663 449.811 387.523 451.671C389.383 453.53 391.963 454.601 394.593 454.601C397.223 454.601 399.803 453.531 401.663 451.671C403.522 449.811 404.593 447.231 404.593 444.601C404.593 441.971 403.523 439.391 401.663 437.531C399.803 435.671 397.223 434.601 394.593 434.601Z" fill="#D6FB00"/>
</svg>
