<svg width="100" viewBox="0 0 25 25" xmlns="http://www.w3.org/2000/svg" style="max-width:100%" height="100%"><path d="M19.7 18.3c.4.4.4 1 0 1.4-.2.2-.4.3-.7.3-.3 0-.5-.1-.7-.3L12 13.4l-6.3 6.3c-.4.4-1 .4-1.4 0-.2-.2-.3-.4-.3-.7 0-.3.1-.5.3-.7l6.3-6.3-6.3-6.3c-.4-.4-.4-1 0-1.4.4-.4 1-.4 1.4 0l6.3 6.3 6.3-6.3c.4-.4 1-.4 1.4 0 .4.4.4 1 0 1.4L13.4 12l6.3 6.3z" fill="currentColor" style=""></path><mask id="a65be1bd65523ee000e896a70" maskUnits="userSpaceOnUse" x="4" y="4" width="16" height="16" style="" fill="currentColor"><path d="M19.7 18.3c.4.4.4 1 0 1.4-.2.2-.4.3-.7.3-.3 0-.5-.1-.7-.3L12 13.4l-6.3 6.3c-.4.4-1 .4-1.4 0-.2-.2-.3-.4-.3-.7 0-.3.1-.5.3-.7l6.3-6.3-6.3-6.3c-.4-.4-.4-1 0-1.4.4-.4 1-.4 1.4 0l6.3 6.3 6.3-6.3c.4-.4 1-.4 1.4 0 .4.4.4 1 0 1.4L13.4 12l6.3 6.3z" fill="currentColor" style=""></path></mask><g mask="url(#a65be1bd65523ee000e896a70)" style="" fill="currentColor"><path fill="currentColor" d="M0 0h24v24H0z" style=""></path></g></svg>