<svg width="2600" height="1320" viewBox="0 0 2600 1320" fill="none" 
style="opacity:0.2;"

xmlns="http://www.w3.org/2000/svg">
<rect width="2600" height="1320" fill="#191919"/>
<path opacity="0.3" d="M207.95 521.4L208.633 520.669L208.633 520.669L207.95 521.4ZM207.25 349.55L207.941 350.273L207.945 350.269L207.25 349.55ZM370 331H371V330.305L370.349 330.063L370 331ZM370 388.4L369.596 389.315L371 389.935V388.4H370ZM258.35 389.8L259.032 390.532L259.04 390.523L258.35 389.8ZM259.05 481.85L258.394 482.605L258.403 482.612L258.411 482.62L259.05 481.85ZM338.85 492.35L338.658 491.369L338.654 491.369L338.85 492.35ZM370.7 482.55H371.7V481.042L370.311 481.629L370.7 482.55ZM370.7 540.3L371.029 541.244L371.7 541.01V540.3H370.7ZM338.85 548.35L338.686 547.364L338.674 547.366L338.662 547.368L338.85 548.35ZM301.4 550.5C260.721 550.5 229.853 540.505 208.633 520.669L207.267 522.131C228.981 542.428 260.413 552.5 301.4 552.5V550.5ZM208.633 520.669C187.416 500.837 176.75 472.779 176.75 436.35H174.75C174.75 473.187 185.55 501.83 207.267 522.131L208.633 520.669ZM176.75 436.35C176.75 398.737 187.193 370.099 207.941 350.273L206.559 348.827C185.307 369.135 174.75 398.363 174.75 436.35H176.75ZM207.945 350.269C228.692 330.213 259.666 320.1 301.05 320.1V318.1C259.367 318.1 227.808 328.287 206.555 348.831L207.945 350.269ZM301.05 320.1C315.002 320.1 327.421 321.147 338.312 323.232L338.688 321.268C327.646 319.153 315.098 318.1 301.05 318.1V320.1ZM338.312 323.232C349.226 325.322 359.672 328.224 369.651 331.937L370.349 330.063C360.261 326.309 349.707 323.378 338.688 321.268L338.312 323.232ZM369 331V388.4H371V331H369ZM370.404 387.485C350.205 378.56 328.6 374.1 305.6 374.1V376.1C328.334 376.1 349.662 380.507 369.596 389.315L370.404 387.485ZM305.6 374.1C284.235 374.1 268.187 379.028 257.66 389.077L259.04 390.523C269.047 380.972 284.499 376.1 305.6 376.1V374.1ZM257.668 389.068C247.112 398.905 241.95 414.752 241.95 436.35H243.95C243.95 415.015 249.054 399.829 259.032 390.532L257.668 389.068ZM241.95 436.35C241.95 457.499 247.355 473.005 258.394 482.605L259.706 481.095C249.279 472.028 243.95 457.201 243.95 436.35H241.95ZM258.411 482.62C269.622 491.922 285.634 496.5 306.3 496.5V494.5C285.899 494.5 270.411 489.978 259.689 481.08L258.411 482.62ZM306.3 496.5C317.563 496.5 328.479 495.444 339.046 493.331L338.654 491.369C328.221 493.456 317.437 494.5 306.3 494.5V496.5ZM339.042 493.331C349.846 491.218 360.528 487.93 371.089 483.471L370.311 481.629C359.872 486.036 349.321 489.282 338.658 491.369L339.042 493.331ZM369.7 482.55V540.3H371.7V482.55H369.7ZM370.371 539.356C360.395 542.836 349.833 545.506 338.686 547.364L339.014 549.336C350.267 547.461 360.939 544.764 371.029 541.244L370.371 539.356ZM338.662 547.368C327.771 549.453 315.352 550.5 301.4 550.5V552.5C315.448 552.5 327.996 551.447 339.038 549.332L338.662 547.368ZM426.848 548H425.848V549H426.848V548ZM426.848 322.6V321.6H425.848V322.6H426.848ZM492.648 322.6H493.648V321.6H492.648V322.6ZM492.648 497.6H491.648V498.6H492.648V497.6ZM594.148 497.6H595.148V496.6H594.148V497.6ZM594.148 548V549H595.148V548H594.148ZM427.848 548V322.6H425.848V548H427.848ZM426.848 323.6H492.648V321.6H426.848V323.6ZM491.648 322.6V497.6H493.648V322.6H491.648ZM492.648 498.6H594.148V496.6H492.648V498.6ZM593.148 497.6V548H595.148V497.6H593.148ZM594.148 547H426.848V549H594.148V547ZM636.26 548L635.326 547.642L634.805 549H636.26V548ZM722.71 322.6V321.6H722.022L721.776 322.242L722.71 322.6ZM792.36 322.6L793.293 322.242L793.047 321.6H792.36V322.6ZM878.81 548V549H880.264L879.743 547.642L878.81 548ZM810.21 548L809.279 548.367L809.529 549H810.21V548ZM791.31 500.05L792.24 499.683L791.99 499.05H791.31V500.05ZM723.41 500.05V499.05H722.724L722.477 499.689L723.41 500.05ZM704.86 548V549H705.545L705.792 548.361L704.86 548ZM732.16 452.8L731.225 452.444L730.709 453.8H732.16V452.8ZM782.56 452.8V453.8H784.011L783.494 452.444L782.56 452.8ZM757.36 386.65L758.294 386.294L757.36 383.841L756.425 386.294L757.36 386.65ZM637.193 548.358L723.643 322.958L721.776 322.242L635.326 547.642L637.193 548.358ZM722.71 323.6H792.36V321.6H722.71V323.6ZM791.426 322.958L877.876 548.358L879.743 547.642L793.293 322.242L791.426 322.958ZM878.81 547H810.21V549H878.81V547ZM811.14 547.633L792.24 499.683L790.379 500.417L809.279 548.367L811.14 547.633ZM791.31 499.05H723.41V501.05H791.31V499.05ZM722.477 499.689L703.927 547.639L705.792 548.361L724.342 500.411L722.477 499.689ZM704.86 547H636.26V549H704.86V547ZM732.16 453.8H782.56V451.8H732.16V453.8ZM783.494 452.444L758.294 386.294L756.425 387.006L781.625 453.156L783.494 452.444ZM756.425 386.294L731.225 452.444L733.094 453.156L758.294 387.006L756.425 386.294ZM956.78 548L956.594 548.982L956.602 548.984L956.611 548.985L956.78 548ZM922.13 537.5H921.13V538.139L921.71 538.407L922.13 537.5ZM922.13 483.25L922.553 482.344L921.13 481.68V483.25H922.13ZM957.13 495.15L956.9 496.123L956.9 496.123L957.13 495.15ZM1019.43 496.9L1019.74 497.852L1019.75 497.849L1019.76 497.845L1019.43 496.9ZM1023.28 471.7L1022.63 472.459L1022.64 472.47L1022.66 472.481L1023.28 471.7ZM1007.53 464L1007.21 464.949L1007.22 464.952L1007.53 464ZM979.88 455.25L979.573 456.202L979.58 456.204L979.588 456.206L979.88 455.25ZM943.83 439.15L943.281 439.985L943.281 439.985L943.83 439.15ZM924.58 417.8L923.667 418.206L923.671 418.217L923.676 418.227L924.58 417.8ZM942.43 336.6L943.021 337.407L943.023 337.406L942.43 336.6ZM1050.93 322.25L1050.77 323.237L1050.77 323.238L1050.93 322.25ZM1083.13 329.25H1084.13V328.516L1083.43 328.296L1083.13 329.25ZM1083.13 383.85L1082.76 384.777L1084.13 385.333V383.85H1083.13ZM1051.63 374.4L1051.45 375.383L1051.45 375.383L1051.63 374.4ZM997.03 374.05L996.81 373.075L997.03 374.05ZM995.28 399.6L994.861 400.508L994.882 400.517L994.903 400.526L995.28 399.6ZM1028.53 409.75L1028.79 408.784L1028.79 408.783L1028.53 409.75ZM1070.53 427.6L1069.94 428.407L1069.95 428.414L1070.53 427.6ZM1090.48 452.1L1089.54 452.451L1089.55 452.459L1090.48 452.1ZM1071.93 532.95L1072.55 533.739L1072.55 533.733L1071.93 532.95ZM999.83 550.5C984.715 550.5 970.422 549.337 956.95 547.015L956.611 548.985C970.205 551.329 984.613 552.5 999.83 552.5V550.5ZM956.967 547.018C943.491 544.462 932.024 540.983 922.551 536.593L921.71 538.407C931.37 542.884 943.003 546.405 956.594 548.982L956.967 547.018ZM923.13 537.5V483.25H921.13V537.5H923.13ZM921.708 484.156C932.277 489.089 944.01 493.076 956.9 496.123L957.36 494.177C944.585 491.157 932.984 487.211 922.553 482.344L921.708 484.156ZM956.9 496.123C969.796 499.171 981.891 500.7 993.18 500.7V498.7C982.07 498.7 970.131 497.195 957.36 494.177L956.9 496.123ZM993.18 500.7C1004.87 500.7 1013.75 499.767 1019.74 497.852L1019.13 495.948C1013.44 497.766 1004.82 498.7 993.18 498.7V500.7ZM1019.76 497.845C1022.96 496.736 1025.43 494.954 1027.09 492.467C1028.74 489.987 1029.53 486.892 1029.53 483.25H1027.53C1027.53 486.608 1026.8 489.288 1025.42 491.358C1024.05 493.421 1021.97 494.964 1019.1 495.955L1019.76 497.845ZM1029.53 483.25C1029.53 478.079 1027.67 473.928 1023.91 470.919L1022.66 472.481C1025.89 475.072 1027.53 478.621 1027.53 483.25H1029.53ZM1023.93 470.941C1020.51 468.012 1015.12 465.396 1007.84 463.048L1007.22 464.952C1014.41 467.271 1019.51 469.788 1022.63 472.459L1023.93 470.941ZM1007.85 463.051C1000.84 460.714 991.61 457.795 980.173 454.294L979.588 456.206C991.017 459.705 1000.23 462.619 1007.21 464.949L1007.85 463.051ZM980.188 454.298C965.069 449.414 953.144 444.08 944.38 438.315L943.281 439.985C952.25 445.886 964.359 451.286 979.573 456.202L980.188 454.298ZM944.38 438.315C935.645 432.568 929.362 425.584 925.485 417.373L923.676 418.227C927.732 426.816 934.283 434.066 943.281 439.985L944.38 438.315ZM925.494 417.394C921.833 409.156 919.98 399.036 919.98 387H917.98C917.98 399.231 919.861 409.644 923.667 418.206L925.494 417.394ZM919.98 387C919.98 365.1 927.685 348.623 943.021 337.407L941.84 335.793C925.909 347.444 917.98 364.567 917.98 387H919.98ZM943.023 337.406C958.644 325.919 981.846 320.1 1012.78 320.1V318.1C981.648 318.1 957.95 323.947 941.838 335.794L943.023 337.406ZM1012.78 320.1C1025.09 320.1 1037.75 321.145 1050.77 323.237L1051.09 321.263C1037.97 319.155 1025.2 318.1 1012.78 318.1V320.1ZM1050.77 323.238C1064.05 325.334 1074.73 327.658 1082.83 330.204L1083.43 328.296C1075.2 325.709 1064.41 323.366 1051.09 321.262L1050.77 323.238ZM1082.13 329.25V383.85H1084.13V329.25H1082.13ZM1083.51 382.923C1072.49 378.468 1061.92 375.297 1051.81 373.417L1051.45 375.383C1061.41 377.236 1071.84 380.365 1082.76 384.777L1083.51 382.923ZM1051.81 373.417C1041.73 371.541 1032.22 370.6 1023.28 370.6V372.6C1032.08 372.6 1041.47 373.526 1051.45 375.383L1051.81 373.417ZM1023.28 370.6C1012.97 370.6 1004.14 371.42 996.81 373.075L997.251 375.025C1004.39 373.413 1013.06 372.6 1023.28 372.6V370.6ZM996.81 373.075C993.054 373.923 990.124 375.463 988.135 377.772C986.138 380.092 985.18 383.082 985.18 386.65H987.18C987.18 383.451 988.031 380.958 989.651 379.078C991.279 377.187 993.773 375.811 997.251 375.025L996.81 373.075ZM985.18 386.65C985.18 389.75 985.99 392.493 987.637 394.837C989.279 397.174 991.71 399.053 994.861 400.508L995.7 398.692C992.784 397.347 990.665 395.668 989.274 393.688C987.888 391.715 987.18 389.384 987.18 386.65H985.18ZM994.903 400.526C1001.27 403.119 1012.41 406.517 1028.27 410.717L1028.79 408.783C1012.92 404.583 1001.89 401.214 995.658 398.674L994.903 400.526ZM1028.27 410.716C1046.65 415.602 1060.52 421.511 1069.94 428.407L1071.12 426.793C1061.41 419.689 1047.28 413.698 1028.79 408.784L1028.27 410.716ZM1069.95 428.414C1079.62 435.323 1086.13 443.34 1089.54 452.451L1091.42 451.749C1087.83 442.194 1081.04 433.877 1071.11 426.786L1069.95 428.414ZM1089.55 452.459C1093 461.424 1094.73 471.683 1094.73 483.25H1096.73C1096.73 471.484 1094.97 460.976 1091.41 451.741L1089.55 452.459ZM1094.73 483.25C1094.73 503.483 1086.93 519.76 1071.31 532.167L1072.55 533.733C1088.66 520.94 1096.73 504.084 1096.73 483.25H1094.73ZM1071.32 532.161C1055.7 544.33 1031.93 550.5 999.83 550.5V552.5C1032.13 552.5 1056.43 546.303 1072.55 533.739L1071.32 532.161ZM1179 548L1178.82 548.982L1178.82 548.984L1178.83 548.985L1179 548ZM1144.35 537.5H1143.35V538.139L1143.93 538.407L1144.35 537.5ZM1144.35 483.25L1144.78 482.344L1143.35 481.68V483.25H1144.35ZM1179.35 495.15L1179.12 496.123L1179.12 496.123L1179.35 495.15ZM1241.65 496.9L1241.96 497.852L1241.97 497.849L1241.98 497.845L1241.65 496.9ZM1245.5 471.7L1244.85 472.459L1244.87 472.47L1244.88 472.481L1245.5 471.7ZM1229.75 464L1229.44 464.949L1229.45 464.952L1229.75 464ZM1202.1 455.25L1201.8 456.202L1201.8 456.204L1201.81 456.206L1202.1 455.25ZM1166.05 439.15L1165.5 439.985L1165.5 439.985L1166.05 439.15ZM1146.8 417.8L1145.89 418.206L1145.89 418.217L1145.9 418.227L1146.8 417.8ZM1164.65 336.6L1165.24 337.407L1165.25 337.406L1164.65 336.6ZM1273.15 322.25L1272.99 323.237L1273 323.238L1273.15 322.25ZM1305.35 329.25H1306.35V328.516L1305.65 328.296L1305.35 329.25ZM1305.35 383.85L1304.98 384.777L1306.35 385.333V383.85H1305.35ZM1273.85 374.4L1273.67 375.383L1273.67 375.383L1273.85 374.4ZM1219.25 374.05L1219.03 373.075L1219.25 374.05ZM1217.5 399.6L1217.08 400.508L1217.1 400.517L1217.13 400.526L1217.5 399.6ZM1250.75 409.75L1251.01 408.784L1251.01 408.783L1250.75 409.75ZM1292.75 427.6L1292.16 428.407L1292.17 428.414L1292.75 427.6ZM1312.7 452.1L1311.77 452.451L1311.77 452.459L1312.7 452.1ZM1294.15 532.95L1294.77 533.739L1294.78 533.733L1294.15 532.95ZM1222.05 550.5C1206.94 550.5 1192.64 549.337 1179.17 547.015L1178.83 548.985C1192.43 551.329 1206.84 552.5 1222.05 552.5V550.5ZM1179.19 547.018C1165.71 544.462 1154.25 540.983 1144.77 536.593L1143.93 538.407C1153.59 542.884 1165.23 546.405 1178.82 548.982L1179.19 547.018ZM1145.35 537.5V483.25H1143.35V537.5H1145.35ZM1143.93 484.156C1154.5 489.089 1166.23 493.076 1179.12 496.123L1179.58 494.177C1166.81 491.157 1155.21 487.211 1144.78 482.344L1143.93 484.156ZM1179.12 496.123C1192.02 499.171 1204.11 500.7 1215.4 500.7V498.7C1204.29 498.7 1192.35 497.195 1179.58 494.177L1179.12 496.123ZM1215.4 500.7C1227.1 500.7 1235.97 499.767 1241.96 497.852L1241.35 495.948C1235.67 497.766 1227.04 498.7 1215.4 498.7V500.7ZM1241.98 497.845C1245.18 496.736 1247.65 494.954 1249.31 492.467C1250.96 489.987 1251.75 486.892 1251.75 483.25H1249.75C1249.75 486.608 1249.03 489.288 1247.65 491.358C1246.27 493.421 1244.19 494.964 1241.33 495.955L1241.98 497.845ZM1251.75 483.25C1251.75 478.079 1249.89 473.928 1246.13 470.919L1244.88 472.481C1248.12 475.072 1249.75 478.621 1249.75 483.25H1251.75ZM1246.15 470.941C1242.74 468.012 1237.34 465.396 1230.06 463.048L1229.45 464.952C1236.64 467.271 1241.74 469.788 1244.85 472.459L1246.15 470.941ZM1230.07 463.051C1223.06 460.714 1213.83 457.795 1202.4 454.294L1201.81 456.206C1213.24 459.705 1222.45 462.619 1229.44 464.949L1230.07 463.051ZM1202.41 454.298C1187.29 449.414 1175.37 444.08 1166.6 438.315L1165.5 439.985C1174.47 445.886 1186.58 451.286 1201.8 456.202L1202.41 454.298ZM1166.6 438.315C1157.87 432.568 1151.58 425.584 1147.71 417.373L1145.9 418.227C1149.95 426.816 1156.51 434.066 1165.5 439.985L1166.6 438.315ZM1147.72 417.394C1144.06 409.156 1142.2 399.036 1142.2 387H1140.2C1140.2 399.231 1142.08 409.644 1145.89 418.206L1147.72 417.394ZM1142.2 387C1142.2 365.1 1149.91 348.623 1165.24 337.407L1164.06 335.793C1148.13 347.444 1140.2 364.567 1140.2 387H1142.2ZM1165.25 337.406C1180.87 325.919 1204.07 320.1 1235 320.1V318.1C1203.87 318.1 1180.17 323.947 1164.06 335.794L1165.25 337.406ZM1235 320.1C1247.31 320.1 1259.98 321.145 1272.99 323.237L1273.31 321.263C1260.2 319.155 1247.43 318.1 1235 318.1V320.1ZM1273 323.238C1286.27 325.334 1296.95 327.658 1305.05 330.204L1305.65 328.296C1297.42 325.709 1286.63 323.366 1273.31 321.262L1273 323.238ZM1304.35 329.25V383.85H1306.35V329.25H1304.35ZM1305.73 382.923C1294.71 378.468 1284.14 375.297 1274.04 373.417L1273.67 375.383C1283.63 377.236 1294.06 380.365 1304.98 384.777L1305.73 382.923ZM1274.04 373.417C1263.95 371.541 1254.44 370.6 1245.5 370.6V372.6C1254.3 372.6 1263.69 373.526 1273.67 375.383L1274.04 373.417ZM1245.5 370.6C1235.19 370.6 1226.36 371.42 1219.03 373.075L1219.47 375.025C1226.61 373.413 1235.28 372.6 1245.5 372.6V370.6ZM1219.03 373.075C1215.28 373.923 1212.35 375.463 1210.36 377.772C1208.36 380.092 1207.4 383.082 1207.4 386.65H1209.4C1209.4 383.451 1210.25 380.958 1211.87 379.078C1213.5 377.187 1216 375.811 1219.47 375.025L1219.03 373.075ZM1207.4 386.65C1207.4 389.75 1208.21 392.493 1209.86 394.837C1211.5 397.174 1213.93 399.053 1217.08 400.508L1217.92 398.692C1215.01 397.347 1212.89 395.668 1211.5 393.688C1210.11 391.715 1209.4 389.384 1209.4 386.65H1207.4ZM1217.13 400.526C1223.49 403.119 1234.63 406.517 1250.5 410.717L1251.01 408.783C1235.14 404.583 1224.11 401.214 1217.88 398.674L1217.13 400.526ZM1250.5 410.716C1268.87 415.602 1282.74 421.511 1292.16 428.407L1293.34 426.793C1283.63 419.689 1269.5 413.698 1251.01 408.784L1250.5 410.716ZM1292.17 428.414C1301.84 435.323 1308.35 443.34 1311.77 452.451L1313.64 451.749C1310.06 442.194 1303.26 433.877 1293.33 426.786L1292.17 428.414ZM1311.77 452.459C1315.22 461.424 1316.95 471.683 1316.95 483.25H1318.95C1318.95 471.484 1317.19 460.976 1313.64 451.741L1311.77 452.459ZM1316.95 483.25C1316.95 503.483 1309.16 519.76 1293.53 532.167L1294.78 533.733C1310.88 520.94 1318.95 504.084 1318.95 483.25H1316.95ZM1293.54 532.161C1277.93 544.33 1254.15 550.5 1222.05 550.5V552.5C1254.35 552.5 1278.65 546.303 1294.77 533.739L1293.54 532.161ZM1373.84 548H1372.84V549H1373.84V548ZM1373.84 322.6V321.6H1372.84V322.6H1373.84ZM1544.64 322.6H1545.64V321.6H1544.64V322.6ZM1544.64 373V374H1545.64V373H1544.64ZM1439.64 373V372H1438.64V373H1439.64ZM1439.64 409.75H1438.64V410.75H1439.64V409.75ZM1531.69 409.75H1532.69V408.75H1531.69V409.75ZM1531.69 460.85V461.85H1532.69V460.85H1531.69ZM1439.64 460.85V459.85H1438.64V460.85H1439.64ZM1439.64 497.6H1438.64V498.6H1439.64V497.6ZM1544.64 497.6H1545.64V496.6H1544.64V497.6ZM1544.64 548V549H1545.64V548H1544.64ZM1374.84 548V322.6H1372.84V548H1374.84ZM1373.84 323.6H1544.64V321.6H1373.84V323.6ZM1543.64 322.6V373H1545.64V322.6H1543.64ZM1544.64 372H1439.64V374H1544.64V372ZM1438.64 373V409.75H1440.64V373H1438.64ZM1439.64 410.75H1531.69V408.75H1439.64V410.75ZM1530.69 409.75V460.85H1532.69V409.75H1530.69ZM1531.69 459.85H1439.64V461.85H1531.69V459.85ZM1438.64 460.85V497.6H1440.64V460.85H1438.64ZM1439.64 498.6H1544.64V496.6H1439.64V498.6ZM1543.64 497.6V548H1545.64V497.6H1543.64ZM1544.64 547H1373.84V549H1544.64V547ZM1627.89 548L1627.71 548.982L1627.71 548.984L1627.72 548.985L1627.89 548ZM1593.24 537.5H1592.24V538.139L1592.82 538.407L1593.24 537.5ZM1593.24 483.25L1593.66 482.344L1592.24 481.68V483.25H1593.24ZM1628.24 495.15L1628.01 496.123L1628.01 496.123L1628.24 495.15ZM1690.54 496.9L1690.85 497.852L1690.86 497.849L1690.87 497.845L1690.54 496.9ZM1694.39 471.7L1693.74 472.459L1693.75 472.47L1693.77 472.481L1694.39 471.7ZM1678.64 464L1678.33 464.949L1678.33 464.952L1678.64 464ZM1650.99 455.25L1650.68 456.202L1650.69 456.204L1650.7 456.206L1650.99 455.25ZM1614.94 439.15L1614.39 439.985L1614.39 439.985L1614.94 439.15ZM1595.69 417.8L1594.78 418.206L1594.78 418.217L1594.79 418.227L1595.69 417.8ZM1613.54 336.6L1614.13 337.407L1614.13 337.406L1613.54 336.6ZM1722.04 322.25L1721.88 323.237L1721.89 323.238L1722.04 322.25ZM1754.24 329.25H1755.24V328.516L1754.54 328.296L1754.24 329.25ZM1754.24 383.85L1753.87 384.777L1755.24 385.333V383.85H1754.24ZM1722.74 374.4L1722.56 375.383L1722.56 375.383L1722.74 374.4ZM1668.14 374.05L1667.92 373.075L1668.14 374.05ZM1666.39 399.6L1665.97 400.508L1665.99 400.517L1666.01 400.526L1666.39 399.6ZM1699.64 409.75L1699.9 408.784L1699.9 408.783L1699.64 409.75ZM1741.64 427.6L1741.05 428.407L1741.06 428.414L1741.64 427.6ZM1761.59 452.1L1760.66 452.451L1760.66 452.459L1761.59 452.1ZM1743.04 532.95L1743.66 533.739L1743.66 533.733L1743.04 532.95ZM1670.94 550.5C1655.83 550.5 1641.53 549.337 1628.06 547.015L1627.72 548.985C1641.32 551.329 1655.72 552.5 1670.94 552.5V550.5ZM1628.08 547.018C1614.6 544.462 1603.14 540.983 1593.66 536.593L1592.82 538.407C1602.48 542.884 1614.11 546.405 1627.71 548.982L1628.08 547.018ZM1594.24 537.5V483.25H1592.24V537.5H1594.24ZM1592.82 484.156C1603.39 489.089 1615.12 493.076 1628.01 496.123L1628.47 494.177C1615.7 491.157 1604.1 487.211 1593.66 482.344L1592.82 484.156ZM1628.01 496.123C1640.91 499.171 1653 500.7 1664.29 500.7V498.7C1653.18 498.7 1641.24 497.195 1628.47 494.177L1628.01 496.123ZM1664.29 500.7C1675.99 500.7 1684.86 499.767 1690.85 497.852L1690.24 495.948C1684.55 497.766 1675.93 498.7 1664.29 498.7V500.7ZM1690.87 497.845C1694.07 496.736 1696.54 494.954 1698.2 492.467C1699.85 489.987 1700.64 486.892 1700.64 483.25H1698.64C1698.64 486.608 1697.91 489.288 1696.53 491.358C1695.16 493.421 1693.08 494.964 1690.21 495.955L1690.87 497.845ZM1700.64 483.25C1700.64 478.079 1698.78 473.928 1695.02 470.919L1693.77 472.481C1697.01 475.072 1698.64 478.621 1698.64 483.25H1700.64ZM1695.04 470.941C1691.63 468.012 1686.23 465.396 1678.95 463.048L1678.33 464.952C1685.52 467.271 1690.62 469.788 1693.74 472.459L1695.04 470.941ZM1678.96 463.051C1671.95 460.714 1662.72 457.795 1651.28 454.294L1650.7 456.206C1662.13 459.705 1671.34 462.619 1678.33 464.949L1678.96 463.051ZM1651.3 454.298C1636.18 449.414 1624.26 444.08 1615.49 438.315L1614.39 439.985C1623.36 445.886 1635.47 451.286 1650.68 456.202L1651.3 454.298ZM1615.49 438.315C1606.76 432.568 1600.47 425.584 1596.6 417.373L1594.79 418.227C1598.84 426.816 1605.39 434.066 1614.39 439.985L1615.49 438.315ZM1596.61 417.394C1592.94 409.156 1591.09 399.036 1591.09 387H1589.09C1589.09 399.231 1590.97 409.644 1594.78 418.206L1596.61 417.394ZM1591.09 387C1591.09 365.1 1598.8 348.623 1614.13 337.407L1612.95 335.793C1597.02 347.444 1589.09 364.567 1589.09 387H1591.09ZM1614.13 337.406C1629.76 325.919 1652.96 320.1 1683.89 320.1V318.1C1652.76 318.1 1629.06 323.947 1612.95 335.794L1614.13 337.406ZM1683.89 320.1C1696.2 320.1 1708.87 321.145 1721.88 323.237L1722.2 321.263C1709.08 319.155 1696.32 318.1 1683.89 318.1V320.1ZM1721.89 323.238C1735.16 325.334 1745.84 327.658 1753.94 330.204L1754.54 328.296C1746.31 325.709 1735.52 323.366 1722.2 321.262L1721.89 323.238ZM1753.24 329.25V383.85H1755.24V329.25H1753.24ZM1754.62 382.923C1743.6 378.468 1733.03 375.297 1722.92 373.417L1722.56 375.383C1732.52 377.236 1742.95 380.365 1753.87 384.777L1754.62 382.923ZM1722.92 373.417C1712.84 371.541 1703.33 370.6 1694.39 370.6V372.6C1703.19 372.6 1712.58 373.526 1722.56 375.383L1722.92 373.417ZM1694.39 370.6C1684.08 370.6 1675.25 371.42 1667.92 373.075L1668.36 375.025C1675.5 373.413 1684.17 372.6 1694.39 372.6V370.6ZM1667.92 373.075C1664.17 373.923 1661.24 375.463 1659.25 377.772C1657.25 380.092 1656.29 383.082 1656.29 386.65H1658.29C1658.29 383.451 1659.14 380.958 1660.76 379.078C1662.39 377.187 1664.88 375.811 1668.36 375.025L1667.92 373.075ZM1656.29 386.65C1656.29 389.75 1657.1 392.493 1658.75 394.837C1660.39 397.174 1662.82 399.053 1665.97 400.508L1666.81 398.692C1663.9 397.347 1661.78 395.668 1660.38 393.688C1659 391.715 1658.29 389.384 1658.29 386.65H1656.29ZM1666.01 400.526C1672.38 403.119 1683.52 406.517 1699.39 410.717L1699.9 408.783C1684.03 404.583 1673 401.214 1666.77 398.674L1666.01 400.526ZM1699.38 410.716C1717.76 415.602 1731.63 421.511 1741.05 428.407L1742.23 426.793C1732.52 419.689 1718.39 413.698 1699.9 408.784L1699.38 410.716ZM1741.06 428.414C1750.73 435.323 1757.24 443.34 1760.66 452.451L1762.53 451.749C1758.94 442.194 1752.15 433.877 1742.22 426.786L1741.06 428.414ZM1760.66 452.459C1764.11 461.424 1765.84 471.683 1765.84 483.25H1767.84C1767.84 471.484 1766.08 460.976 1762.53 451.741L1760.66 452.459ZM1765.84 483.25C1765.84 503.483 1758.04 519.76 1742.42 532.167L1743.66 533.733C1759.77 520.94 1767.84 504.084 1767.84 483.25H1765.84ZM1742.43 532.161C1726.81 544.33 1703.04 550.5 1670.94 550.5V552.5C1703.24 552.5 1727.54 546.303 1743.66 533.739L1742.43 532.161Z" fill="white"/>
</svg>
