<svg width="2600" height="1320" viewBox="0 0 2600 1320" fill="none" 
style="opacity:0.2;"
xmlns="http://www.w3.org/2000/svg">
<rect width="2600" height="1320" fill="#191919"/>
<path opacity="0.3" d="M700.1 433H699.1V434H700.1V433ZM700.1 256.6H701.1V255.6H700.1V256.6ZM636.75 256.6H635.75V257.6H636.75V256.6ZM636.75 207.6V206.6H635.75V207.6H636.75ZM829.25 207.6H830.25V206.6H829.25V207.6ZM829.25 256.6V257.6H830.25V256.6H829.25ZM765.9 256.6V255.6H764.9V256.6H765.9ZM765.9 433V434H766.9V433H765.9ZM701.1 433V256.6H699.1V433H701.1ZM700.1 255.6H636.75V257.6H700.1V255.6ZM637.75 256.6V207.6H635.75V256.6H637.75ZM636.75 208.6H829.25V206.6H636.75V208.6ZM828.25 207.6V256.6H830.25V207.6H828.25ZM829.25 255.6H765.9V257.6H829.25V255.6ZM764.9 256.6V433H766.9V256.6H764.9ZM765.9 432H700.1V434H765.9V432ZM878.1 433H877.1V434H878.1V433ZM878.1 207.6V206.6H877.1V207.6H878.1ZM1040.5 217.75L1040 218.615L1040.01 218.619L1040.5 217.75ZM1067.1 246.1L1066.2 246.533L1066.2 246.54L1067.1 246.1ZM1064.3 328L1063.46 327.449L1063.46 327.453L1064.3 328ZM1034.2 354.25L1033.77 353.349L1032.35 354.03L1033.57 355.024L1034.2 354.25ZM1040.85 361.95L1040 362.474L1040.01 362.49L1040.02 362.505L1040.85 361.95ZM1047.15 373.85L1048.07 373.449L1048.06 373.436L1047.15 373.85ZM1073.05 433V434H1074.58L1073.97 432.599L1073.05 433ZM1004.45 433L1003.53 433.402L1003.8 434H1004.45V433ZM980.65 378.75L981.565 378.348L981.563 378.344L980.65 378.75ZM973.65 370L973.061 370.809L973.102 370.838L973.146 370.864L973.65 370ZM943.9 367.2V366.2H942.9V367.2H943.9ZM943.9 433V434H944.9V433H943.9ZM943.9 316.8H942.9V317.8H943.9V316.8ZM1000.6 309.45L1001.29 310.173L1001.29 310.173L1000.6 309.45ZM943.9 258V257H942.9V258H943.9ZM879.1 433V207.6H877.1V433H879.1ZM878.1 208.6H995.35V206.6H878.1V208.6ZM995.35 208.6C1013.67 208.6 1028.53 211.963 1040 218.615L1041 216.885C1029.14 210.003 1013.9 206.6 995.35 206.6V208.6ZM1040.01 218.619C1051.73 225.287 1060.45 234.587 1066.2 246.533L1068 245.667C1062.08 233.347 1053.07 223.746 1040.99 216.881L1040.01 218.619ZM1066.2 246.54C1071.96 258.279 1074.85 272.006 1074.85 287.75H1076.85C1076.85 271.761 1073.91 257.721 1068 245.66L1066.2 246.54ZM1074.85 287.75C1074.85 302.738 1071.05 315.96 1063.47 327.449L1065.13 328.551C1072.95 316.707 1076.85 303.095 1076.85 287.75H1074.85ZM1063.46 327.453C1056.1 338.73 1046.21 347.359 1033.77 353.349L1034.63 355.151C1047.39 349.007 1057.57 340.137 1065.14 328.547L1063.46 327.453ZM1033.57 355.024C1036.04 357.048 1038.19 359.529 1040 362.474L1041.7 361.426C1039.78 358.305 1037.49 355.652 1034.83 353.476L1033.57 355.024ZM1040.02 362.505C1041.84 365.24 1043.92 369.151 1046.24 374.264L1048.06 373.436C1045.72 368.282 1043.59 364.26 1041.68 361.395L1040.02 362.505ZM1046.23 374.251L1072.13 433.401L1073.97 432.599L1048.07 373.449L1046.23 374.251ZM1073.05 432H1004.45V434H1073.05V432ZM1005.37 432.598L981.565 378.348L979.734 379.152L1003.53 433.402L1005.37 432.598ZM981.563 378.344C979.646 374.03 977.196 370.911 974.153 369.136L973.146 370.864C975.703 372.355 977.92 375.07 979.736 379.156L981.563 378.344ZM974.238 369.191C971.43 367.149 967.453 366.2 962.45 366.2V368.2C967.246 368.2 970.736 369.117 973.061 370.809L974.238 369.191ZM962.45 366.2H943.9V368.2H962.45V366.2ZM942.9 367.2V433H944.9V367.2H942.9ZM943.9 432H878.1V434H943.9V432ZM943.9 317.8H978.55V315.8H943.9V317.8ZM978.55 317.8C988.282 317.8 995.914 315.305 1001.29 310.173L999.909 308.727C995.019 313.395 987.951 315.8 978.55 315.8V317.8ZM1001.29 310.173C1006.9 304.805 1009.65 297.282 1009.65 287.75H1007.65C1007.65 296.885 1005.03 303.829 999.908 308.727L1001.29 310.173ZM1009.65 287.75C1009.65 277.694 1007.28 269.966 1002.38 264.752C997.46 259.527 990.153 257 980.65 257V259C989.813 259 996.506 261.431 1000.92 266.123C1005.35 270.826 1007.65 277.973 1007.65 287.75H1009.65ZM980.65 257H943.9V259H980.65V257ZM942.9 258V316.8H944.9V258H942.9ZM1109.04 433L1108.11 432.642L1107.59 434H1109.04V433ZM1195.49 207.6V206.6H1194.81L1194.56 207.242L1195.49 207.6ZM1265.14 207.6L1266.08 207.242L1265.83 206.6H1265.14V207.6ZM1351.59 433V434H1353.05L1352.53 432.642L1351.59 433ZM1282.99 433L1282.06 433.367L1282.31 434H1282.99V433ZM1264.09 385.05L1265.03 384.683L1264.78 384.05H1264.09V385.05ZM1196.19 385.05V384.05H1195.51L1195.26 384.689L1196.19 385.05ZM1177.64 433V434H1178.33L1178.58 433.361L1177.64 433ZM1204.94 337.8L1204.01 337.444L1203.49 338.8H1204.94V337.8ZM1255.34 337.8V338.8H1256.8L1256.28 337.444L1255.34 337.8ZM1230.14 271.65L1231.08 271.294L1230.14 268.841L1229.21 271.294L1230.14 271.65ZM1109.98 433.358L1196.43 207.958L1194.56 207.242L1108.11 432.642L1109.98 433.358ZM1195.49 208.6H1265.14V206.6H1195.49V208.6ZM1264.21 207.958L1350.66 433.358L1352.53 432.642L1266.08 207.242L1264.21 207.958ZM1351.59 432H1282.99V434H1351.59V432ZM1283.93 432.633L1265.03 384.683L1263.16 385.417L1282.06 433.367L1283.93 432.633ZM1264.09 384.05H1196.19V386.05H1264.09V384.05ZM1195.26 384.689L1176.71 432.639L1178.58 433.361L1197.13 385.411L1195.26 384.689ZM1177.64 432H1109.04V434H1177.64V432ZM1204.94 338.8H1255.34V336.8H1204.94V338.8ZM1256.28 337.444L1231.08 271.294L1229.21 272.006L1254.41 338.156L1256.28 337.444ZM1229.21 271.294L1204.01 337.444L1205.88 338.156L1231.08 272.006L1229.21 271.294ZM1407.65 433H1406.65V434H1407.65V433ZM1407.65 207.6V206.6H1406.65V207.6H1407.65ZM1473.45 207.6H1474.45V206.6H1473.45V207.6ZM1473.45 433V434H1474.45V433H1473.45ZM1408.65 433V207.6H1406.65V433H1408.65ZM1407.65 208.6H1473.45V206.6H1407.65V208.6ZM1472.45 207.6V433H1474.45V207.6H1472.45ZM1473.45 432H1407.65V434H1473.45V432ZM1536.56 433H1535.56V434H1536.56V433ZM1536.56 207.6V206.6H1535.56V207.6H1536.56ZM1592.56 207.6L1593.38 207.02L1593.08 206.6H1592.56V207.6ZM1677.61 326.95L1676.8 327.53L1678.61 330.076V326.95H1677.61ZM1677.61 207.6V206.6H1676.61V207.6H1677.61ZM1743.41 207.6H1744.41V206.6H1743.41V207.6ZM1743.41 433V434H1744.41V433H1743.41ZM1687.06 433L1686.25 433.58L1686.55 434H1687.06V433ZM1602.36 314L1603.18 313.42L1601.36 310.871V314H1602.36ZM1602.36 433V434H1603.36V433H1602.36ZM1537.56 433V207.6H1535.56V433H1537.56ZM1536.56 208.6H1592.56V206.6H1536.56V208.6ZM1591.75 208.18L1676.8 327.53L1678.43 326.37L1593.38 207.02L1591.75 208.18ZM1678.61 326.95V207.6H1676.61V326.95H1678.61ZM1677.61 208.6H1743.41V206.6H1677.61V208.6ZM1742.41 207.6V433H1744.41V207.6H1742.41ZM1743.41 432H1687.06V434H1743.41V432ZM1687.88 432.42L1603.18 313.42L1601.55 314.58L1686.25 433.58L1687.88 432.42ZM1601.36 314V433H1603.36V314H1601.36ZM1602.36 432H1536.56V434H1602.36V432ZM1806.3 433H1805.3V434H1806.3V433ZM1806.3 207.6V206.6H1805.3V207.6H1806.3ZM1977.1 207.6H1978.1V206.6H1977.1V207.6ZM1977.1 258V259H1978.1V258H1977.1ZM1872.1 258V257H1871.1V258H1872.1ZM1872.1 294.75H1871.1V295.75H1872.1V294.75ZM1964.15 294.75H1965.15V293.75H1964.15V294.75ZM1964.15 345.85V346.85H1965.15V345.85H1964.15ZM1872.1 345.85V344.85H1871.1V345.85H1872.1ZM1872.1 382.6H1871.1V383.6H1872.1V382.6ZM1977.1 382.6H1978.1V381.6H1977.1V382.6ZM1977.1 433V434H1978.1V433H1977.1ZM1807.3 433V207.6H1805.3V433H1807.3ZM1806.3 208.6H1977.1V206.6H1806.3V208.6ZM1976.1 207.6V258H1978.1V207.6H1976.1ZM1977.1 257H1872.1V259H1977.1V257ZM1871.1 258V294.75H1873.1V258H1871.1ZM1872.1 295.75H1964.15V293.75H1872.1V295.75ZM1963.15 294.75V345.85H1965.15V294.75H1963.15ZM1964.15 344.85H1872.1V346.85H1964.15V344.85ZM1871.1 345.85V382.6H1873.1V345.85H1871.1ZM1872.1 383.6H1977.1V381.6H1872.1V383.6ZM1976.1 382.6V433H1978.1V382.6H1976.1ZM1977.1 432H1806.3V434H1977.1V432ZM2029.54 433H2028.54V434H2029.54V433ZM2029.54 207.6V206.6H2028.54V207.6H2029.54ZM2191.94 217.75L2191.44 218.615L2191.45 218.619L2191.94 217.75ZM2218.54 246.1L2217.64 246.533L2217.65 246.54L2218.54 246.1ZM2215.74 328L2214.91 327.449L2214.91 327.453L2215.74 328ZM2185.64 354.25L2185.21 353.349L2183.8 354.03L2185.01 355.024L2185.64 354.25ZM2192.29 361.95L2191.44 362.474L2191.45 362.49L2191.46 362.505L2192.29 361.95ZM2198.59 373.85L2199.51 373.449L2199.51 373.436L2198.59 373.85ZM2224.49 433V434H2226.02L2225.41 432.599L2224.49 433ZM2155.89 433L2154.98 433.402L2155.24 434H2155.89V433ZM2132.09 378.75L2133.01 378.348L2133.01 378.344L2132.09 378.75ZM2125.09 370L2124.51 370.809L2124.55 370.838L2124.59 370.864L2125.09 370ZM2095.34 367.2V366.2H2094.34V367.2H2095.34ZM2095.34 433V434H2096.34V433H2095.34ZM2095.34 316.8H2094.34V317.8H2095.34V316.8ZM2152.04 309.45L2152.74 310.173L2152.74 310.173L2152.04 309.45ZM2095.34 258V257H2094.34V258H2095.34ZM2030.54 433V207.6H2028.54V433H2030.54ZM2029.54 208.6H2146.79V206.6H2029.54V208.6ZM2146.79 208.6C2165.11 208.6 2179.97 211.963 2191.44 218.615L2192.45 216.885C2180.58 210.003 2165.34 206.6 2146.79 206.6V208.6ZM2191.45 218.619C2203.18 225.287 2211.9 234.587 2217.64 246.533L2219.45 245.667C2213.52 233.347 2204.51 223.746 2192.44 216.881L2191.45 218.619ZM2217.65 246.54C2223.4 258.279 2226.29 272.006 2226.29 287.75H2228.29C2228.29 271.761 2225.36 257.721 2219.44 245.66L2217.65 246.54ZM2226.29 287.75C2226.29 302.738 2222.49 315.96 2214.91 327.449L2216.58 328.551C2224.4 316.707 2228.29 303.095 2228.29 287.75H2226.29ZM2214.91 327.453C2207.54 338.73 2197.65 347.359 2185.21 353.349L2186.08 355.151C2198.84 349.007 2209.01 340.137 2216.58 328.547L2214.91 327.453ZM2185.01 355.024C2187.49 357.048 2189.63 359.529 2191.44 362.474L2193.15 361.426C2191.23 358.305 2188.94 355.652 2186.28 353.476L2185.01 355.024ZM2191.46 362.505C2193.29 365.24 2195.36 369.151 2197.68 374.264L2199.51 373.436C2197.16 368.282 2195.04 364.26 2193.13 361.395L2191.46 362.505ZM2197.68 374.251L2223.58 433.401L2225.41 432.599L2199.51 373.449L2197.68 374.251ZM2224.49 432H2155.89V434H2224.49V432ZM2156.81 432.598L2133.01 378.348L2131.18 379.152L2154.98 433.402L2156.81 432.598ZM2133.01 378.344C2131.09 374.03 2128.64 370.911 2125.6 369.136L2124.59 370.864C2127.15 372.355 2129.37 375.07 2131.18 379.156L2133.01 378.344ZM2125.68 369.191C2122.88 367.149 2118.9 366.2 2113.89 366.2V368.2C2118.69 368.2 2122.18 369.117 2124.51 370.809L2125.68 369.191ZM2113.89 366.2H2095.34V368.2H2113.89V366.2ZM2094.34 367.2V433H2096.34V367.2H2094.34ZM2095.34 432H2029.54V434H2095.34V432ZM2095.34 317.8H2129.99V315.8H2095.34V317.8ZM2129.99 317.8C2139.73 317.8 2147.36 315.305 2152.74 310.173L2151.35 308.727C2146.46 313.395 2139.4 315.8 2129.99 315.8V317.8ZM2152.74 310.173C2158.35 304.805 2161.09 297.282 2161.09 287.75H2159.09C2159.09 296.885 2156.48 303.829 2151.35 308.727L2152.74 310.173ZM2161.09 287.75C2161.09 277.694 2158.73 269.966 2153.82 264.752C2148.91 259.527 2141.6 257 2132.09 257V259C2141.26 259 2147.95 261.431 2152.37 266.123C2156.79 270.826 2159.09 277.973 2159.09 287.75H2161.09ZM2132.09 257H2095.34V259H2132.09V257ZM2094.34 258V316.8H2096.34V258H2094.34ZM2314.01 433L2313.83 433.982L2313.83 433.984L2313.84 433.985L2314.01 433ZM2279.36 422.5H2278.36V423.139L2278.94 423.407L2279.36 422.5ZM2279.36 368.25L2279.79 367.344L2278.36 366.68V368.25H2279.36ZM2314.36 380.15L2314.13 381.123L2314.13 381.123L2314.36 380.15ZM2376.66 381.9L2376.97 382.852L2376.98 382.849L2376.99 382.845L2376.66 381.9ZM2380.51 356.7L2379.86 357.459L2379.87 357.47L2379.89 357.481L2380.51 356.7ZM2364.76 349L2364.45 349.949L2364.46 349.952L2364.76 349ZM2337.11 340.25L2336.81 341.202L2336.81 341.204L2336.82 341.206L2337.11 340.25ZM2301.06 324.15L2300.51 324.985L2300.51 324.985L2301.06 324.15ZM2281.81 302.8L2280.9 303.206L2280.9 303.217L2280.91 303.227L2281.81 302.8ZM2299.66 221.6L2300.25 222.407L2300.26 222.406L2299.66 221.6ZM2408.16 207.25L2408 208.237L2408.01 208.238L2408.16 207.25ZM2440.36 214.25H2441.36V213.516L2440.66 213.296L2440.36 214.25ZM2440.36 268.85L2439.99 269.777L2441.36 270.333V268.85H2440.36ZM2408.86 259.4L2408.68 260.383L2408.68 260.383L2408.86 259.4ZM2354.26 259.05L2354.04 258.075L2354.26 259.05ZM2352.51 284.6L2352.09 285.508L2352.11 285.517L2352.14 285.526L2352.51 284.6ZM2385.76 294.75L2386.02 293.784L2386.02 293.783L2385.76 294.75ZM2427.76 312.6L2427.17 313.407L2427.18 313.414L2427.76 312.6ZM2447.71 337.1L2446.78 337.451L2446.78 337.459L2447.71 337.1ZM2429.16 417.95L2429.78 418.739L2429.78 418.733L2429.16 417.95ZM2357.06 435.5C2341.95 435.5 2327.65 434.337 2314.18 432.015L2313.84 433.985C2327.44 436.329 2341.85 437.5 2357.06 437.5V435.5ZM2314.2 432.018C2300.72 429.462 2289.26 425.983 2279.78 421.593L2278.94 423.407C2288.6 427.884 2300.24 431.405 2313.83 433.982L2314.2 432.018ZM2280.36 422.5V368.25H2278.36V422.5H2280.36ZM2278.94 369.156C2289.51 374.089 2301.24 378.076 2314.13 381.123L2314.59 379.177C2301.82 376.157 2290.22 372.211 2279.79 367.344L2278.94 369.156ZM2314.13 381.123C2327.03 384.171 2339.12 385.7 2350.41 385.7V383.7C2339.3 383.7 2327.36 382.195 2314.59 379.177L2314.13 381.123ZM2350.41 385.7C2362.11 385.7 2370.98 384.767 2376.97 382.852L2376.36 380.948C2370.68 382.766 2362.05 383.7 2350.41 383.7V385.7ZM2376.99 382.845C2380.19 381.736 2382.66 379.954 2384.32 377.467C2385.97 374.987 2386.76 371.892 2386.76 368.25H2384.76C2384.76 371.608 2384.04 374.288 2382.66 376.358C2381.28 378.421 2379.2 379.964 2376.34 380.955L2376.99 382.845ZM2386.76 368.25C2386.76 363.079 2384.9 358.928 2381.14 355.919L2379.89 357.481C2383.13 360.072 2384.76 363.621 2384.76 368.25H2386.76ZM2381.16 355.941C2377.75 353.012 2372.35 350.396 2365.07 348.048L2364.46 349.952C2371.64 352.271 2376.75 354.788 2379.86 357.459L2381.16 355.941ZM2365.08 348.051C2358.07 345.714 2348.84 342.795 2337.41 339.294L2336.82 341.206C2348.25 344.705 2357.46 347.619 2364.45 349.949L2365.08 348.051ZM2337.42 339.298C2322.3 334.414 2310.38 329.08 2301.61 323.315L2300.51 324.985C2309.48 330.886 2321.59 336.286 2336.81 341.202L2337.42 339.298ZM2301.61 323.315C2292.88 317.568 2286.59 310.584 2282.72 302.373L2280.91 303.227C2284.96 311.816 2291.52 319.066 2300.51 324.985L2301.61 323.315ZM2282.73 302.394C2279.07 294.156 2277.21 284.036 2277.21 272H2275.21C2275.21 284.231 2277.09 294.644 2280.9 303.206L2282.73 302.394ZM2277.21 272C2277.21 250.1 2284.92 233.623 2300.25 222.407L2299.07 220.793C2283.14 232.444 2275.21 249.567 2275.21 272H2277.21ZM2300.26 222.406C2315.88 210.919 2339.08 205.1 2370.01 205.1V203.1C2338.88 203.1 2315.18 208.947 2299.07 220.794L2300.26 222.406ZM2370.01 205.1C2382.32 205.1 2394.99 206.145 2408 208.237L2408.32 206.263C2395.21 204.155 2382.44 203.1 2370.01 203.1V205.1ZM2408.01 208.238C2421.28 210.334 2431.96 212.658 2440.06 215.204L2440.66 213.296C2432.43 210.709 2421.64 208.366 2408.32 206.262L2408.01 208.238ZM2439.36 214.25V268.85H2441.36V214.25H2439.36ZM2440.74 267.923C2429.72 263.468 2419.15 260.297 2409.05 258.417L2408.68 260.383C2418.64 262.236 2429.07 265.365 2439.99 269.777L2440.74 267.923ZM2409.05 258.417C2398.96 256.541 2389.45 255.6 2380.51 255.6V257.6C2389.31 257.6 2398.7 258.526 2408.68 260.383L2409.05 258.417ZM2380.51 255.6C2370.2 255.6 2361.37 256.42 2354.04 258.075L2354.48 260.025C2361.62 258.413 2370.29 257.6 2380.51 257.6V255.6ZM2354.04 258.075C2350.29 258.923 2347.36 260.463 2345.37 262.772C2343.37 265.092 2342.41 268.082 2342.41 271.65H2344.41C2344.41 268.451 2345.26 265.958 2346.88 264.078C2348.51 262.187 2351.01 260.811 2354.48 260.025L2354.04 258.075ZM2342.41 271.65C2342.41 274.75 2343.22 277.493 2344.87 279.837C2346.51 282.174 2348.94 284.053 2352.09 285.508L2352.93 283.692C2350.02 282.347 2347.9 280.668 2346.51 278.688C2345.12 276.715 2344.41 274.384 2344.41 271.65H2342.41ZM2352.14 285.526C2358.5 288.119 2369.64 291.517 2385.51 295.717L2386.02 293.783C2370.15 289.583 2359.12 286.214 2352.89 283.674L2352.14 285.526ZM2385.51 295.716C2403.88 300.602 2417.75 306.511 2427.17 313.407L2428.35 311.793C2418.64 304.689 2404.51 298.698 2386.02 293.784L2385.51 295.716ZM2427.18 313.414C2436.85 320.323 2443.36 328.34 2446.78 337.451L2448.65 336.749C2445.07 327.194 2438.27 318.877 2428.34 311.786L2427.18 313.414ZM2446.78 337.459C2450.23 346.424 2451.96 356.683 2451.96 368.25H2453.96C2453.96 356.484 2452.2 345.976 2448.65 336.741L2446.78 337.459ZM2451.96 368.25C2451.96 388.483 2444.17 404.76 2428.54 417.167L2429.78 418.733C2445.89 405.94 2453.96 389.084 2453.96 368.25H2451.96ZM2428.55 417.161C2412.94 429.33 2389.16 435.5 2357.06 435.5V437.5C2389.36 437.5 2413.66 431.303 2429.78 418.739L2428.55 417.161Z" fill="white"/>
</svg>
